solid OpenSCAD_Model
  facet normal 0 0 -1
    outer loop
      vertex -24 0 0
      vertex -23.8844 1.42125 0
      vertex -23.8844 -1.42125 0
    endloop
  endfacet
  facet normal 0 0 -1
    outer loop
      vertex -23.8844 -1.42125 0
      vertex -23.8844 1.42125 0
      vertex -23.5388 2.82881 0
    endloop
  endfacet
  facet normal 0 0 -1
    outer loop
      vertex -23.8844 -1.42125 0
      vertex -23.5388 2.82881 0
      vertex -22.9666 4.20913 0
    endloop
  endfacet
  facet normal 0 0 -1
    outer loop
      vertex -23.8844 -1.42125 0
      vertex -22.9666 4.20913 0
      vertex -22.1731 5.54891 0
    endloop
  endfacet
  facet normal 0 0 -1
    outer loop
      vertex -23.8844 -1.42125 0
      vertex -22.1731 5.54891 0
      vertex -21.1661 6.83525 0
    endloop
  endfacet
  facet normal 0 0 -1
    outer loop
      vertex -23.8844 -1.42125 0
      vertex -21.1661 6.83525 0
      vertex -19.9553 8.05577 0
    endloop
  endfacet
  facet normal 0 0 -1
    outer loop
      vertex -23.8844 -1.42125 0
      vertex -19.9553 8.05577 0
      vertex -18.5523 9.1987 0
    endloop
  endfacet
  facet normal 0 0 -1
    outer loop
      vertex -23.8844 -1.42125 0
      vertex -18.5523 9.1987 0
      vertex -16.9706 10.253 0
    endloop
  endfacet
  facet normal 0 0 -1
    outer loop
      vertex -23.8844 -1.42125 0
      vertex -16.9706 10.253 0
      vertex -15.2254 11.2087 0
    endloop
  endfacet
  facet normal 0 0 -1
    outer loop
      vertex -23.8844 -1.42125 0
      vertex -15.2254 11.2087 0
      vertex -13.3337 12.0563 0
    endloop
  endfacet
  facet normal 0 0 -1
    outer loop
      vertex -23.8844 -1.42125 0
      vertex -13.3337 12.0563 0
      vertex -11.3135 12.7879 0
    endloop
  endfacet
  facet normal 0 0 -1
    outer loop
      vertex -23.8844 -1.42125 0
      vertex -11.3135 12.7879 0
      vertex -9.1844 13.3963 0
    endloop
  endfacet
  facet normal 0 0 -1
    outer loop
      vertex -23.8844 -1.42125 0
      vertex -9.1844 13.3963 0
      vertex -6.96683 13.8756 0
    endloop
  endfacet
  facet normal 0 0 -1
    outer loop
      vertex -23.8844 -1.42125 0
      vertex -6.96683 13.8756 0
      vertex -4.68217 14.2214 0
    endloop
  endfacet
  facet normal 0 0 -1
    outer loop
      vertex -23.8844 -1.42125 0
      vertex -4.68217 14.2214 0
      vertex -2.35241 14.4302 0
    endloop
  endfacet
  facet normal 0 0 -1
    outer loop
      vertex -23.8844 -1.42125 0
      vertex -2.35241 14.4302 0
      vertex 0 14.5 0
    endloop
  endfacet
  facet normal 0 0 -1
    outer loop
      vertex -23.8844 -1.42125 0
      vertex 0 14.5 0
      vertex 2.35241 14.4302 0
    endloop
  endfacet
  facet normal 0 0 -1
    outer loop
      vertex -23.8844 -1.42125 0
      vertex 2.35241 14.4302 0
      vertex 4.68217 14.2214 0
    endloop
  endfacet
  facet normal 0 0 -1
    outer loop
      vertex -23.8844 -1.42125 0
      vertex 4.68217 14.2214 0
      vertex 6.96683 13.8756 0
    endloop
  endfacet
  facet normal 0 0 -1
    outer loop
      vertex -23.8844 -1.42125 0
      vertex 6.96683 13.8756 0
      vertex 9.1844 13.3963 0
    endloop
  endfacet
  facet normal 0 0 -1
    outer loop
      vertex -23.8844 -1.42125 0
      vertex 9.1844 13.3963 0
      vertex 11.3135 12.7879 0
    endloop
  endfacet
  facet normal 0 0 -1
    outer loop
      vertex -23.8844 -1.42125 0
      vertex 11.3135 12.7879 0
      vertex 13.3337 12.0563 0
    endloop
  endfacet
  facet normal 0 0 -1
    outer loop
      vertex -23.8844 -1.42125 0
      vertex 13.3337 12.0563 0
      vertex 15.2254 11.2087 0
    endloop
  endfacet
  facet normal 0 0 -1
    outer loop
      vertex -23.8844 -1.42125 0
      vertex 15.2254 11.2087 0
      vertex 16.9706 10.253 0
    endloop
  endfacet
  facet normal 0 0 -1
    outer loop
      vertex -23.8844 -1.42125 0
      vertex 16.9706 10.253 0
      vertex 18.5523 9.1987 0
    endloop
  endfacet
  facet normal 0 0 -1
    outer loop
      vertex -23.8844 -1.42125 0
      vertex 18.5523 9.1987 0
      vertex 19.9553 8.05577 0
    endloop
  endfacet
  facet normal 0 0 -1
    outer loop
      vertex -23.8844 -1.42125 0
      vertex 19.9553 8.05577 0
      vertex 21.1661 6.83525 0
    endloop
  endfacet
  facet normal 0 0 -1
    outer loop
      vertex -23.8844 -1.42125 0
      vertex 21.1661 6.83525 0
      vertex 22.1731 5.54891 0
    endloop
  endfacet
  facet normal 0 0 -1
    outer loop
      vertex -23.8844 -1.42125 0
      vertex 22.1731 5.54891 0
      vertex 22.9666 4.20913 0
    endloop
  endfacet
  facet normal 0 0 -1
    outer loop
      vertex -23.8844 -1.42125 0
      vertex 22.9666 4.20913 0
      vertex 23.5388 2.82881 0
    endloop
  endfacet
  facet normal 0 0 -1
    outer loop
      vertex -23.8844 -1.42125 0
      vertex 23.5388 2.82881 0
      vertex 23.8844 1.42125 0
    endloop
  endfacet
  facet normal 0 0 -1
    outer loop
      vertex -23.8844 -1.42125 0
      vertex 23.8844 1.42125 0
      vertex 24 0 0
    endloop
  endfacet
  facet normal 0 0 -1
    outer loop
      vertex -23.8844 -1.42125 0
      vertex 24 0 0
      vertex 23.8844 -1.42125 0
    endloop
  endfacet
  facet normal 0 0 -1
    outer loop
      vertex -23.8844 -1.42125 0
      vertex 23.8844 -1.42125 0
      vertex 23.5388 -2.82881 0
    endloop
  endfacet
  facet normal 0 0 -1
    outer loop
      vertex -23.8844 -1.42125 0
      vertex 23.5388 -2.82881 0
      vertex 22.9666 -4.20913 0
    endloop
  endfacet
  facet normal 0 0 -1
    outer loop
      vertex -23.8844 -1.42125 0
      vertex 22.9666 -4.20913 0
      vertex 22.1731 -5.54891 0
    endloop
  endfacet
  facet normal 0 0 -1
    outer loop
      vertex -23.8844 -1.42125 0
      vertex 22.1731 -5.54891 0
      vertex 21.1661 -6.83525 0
    endloop
  endfacet
  facet normal 0 0 -1
    outer loop
      vertex -23.8844 -1.42125 0
      vertex 21.1661 -6.83525 0
      vertex 19.9553 -8.05577 0
    endloop
  endfacet
  facet normal 0 0 -1
    outer loop
      vertex -23.8844 -1.42125 0
      vertex 19.9553 -8.05577 0
      vertex 18.5523 -9.1987 0
    endloop
  endfacet
  facet normal 0 0 -1
    outer loop
      vertex -23.8844 -1.42125 0
      vertex 18.5523 -9.1987 0
      vertex 16.9706 -10.253 0
    endloop
  endfacet
  facet normal 0 0 -1
    outer loop
      vertex -23.8844 -1.42125 0
      vertex 16.9706 -10.253 0
      vertex 15.2254 -11.2087 0
    endloop
  endfacet
  facet normal 0 0 -1
    outer loop
      vertex -23.8844 -1.42125 0
      vertex 15.2254 -11.2087 0
      vertex 13.3337 -12.0563 0
    endloop
  endfacet
  facet normal 0 0 -1
    outer loop
      vertex -23.8844 -1.42125 0
      vertex 13.3337 -12.0563 0
      vertex 11.3135 -12.7879 0
    endloop
  endfacet
  facet normal 0 0 -1
    outer loop
      vertex -23.8844 -1.42125 0
      vertex 11.3135 -12.7879 0
      vertex 9.1844 -13.3963 0
    endloop
  endfacet
  facet normal 0 0 -1
    outer loop
      vertex -23.8844 -1.42125 0
      vertex 9.1844 -13.3963 0
      vertex 6.96683 -13.8756 0
    endloop
  endfacet
  facet normal 0 0 -1
    outer loop
      vertex -23.8844 -1.42125 0
      vertex 6.96683 -13.8756 0
      vertex 4.68217 -14.2214 0
    endloop
  endfacet
  facet normal 0 0 -1
    outer loop
      vertex -23.8844 -1.42125 0
      vertex 4.68217 -14.2214 0
      vertex 2.35241 -14.4302 0
    endloop
  endfacet
  facet normal 0 0 -1
    outer loop
      vertex -23.8844 -1.42125 0
      vertex 2.35241 -14.4302 0
      vertex 0 -14.5 0
    endloop
  endfacet
  facet normal 0 0 -1
    outer loop
      vertex -23.8844 -1.42125 0
      vertex 0 -14.5 0
      vertex -2.35241 -14.4302 0
    endloop
  endfacet
  facet normal 0 0 -1
    outer loop
      vertex -23.8844 -1.42125 0
      vertex -2.35241 -14.4302 0
      vertex -4.68217 -14.2214 0
    endloop
  endfacet
  facet normal 0 0 -1
    outer loop
      vertex -23.8844 -1.42125 0
      vertex -4.68217 -14.2214 0
      vertex -6.96683 -13.8756 0
    endloop
  endfacet
  facet normal 0 0 -1
    outer loop
      vertex -23.8844 -1.42125 0
      vertex -6.96683 -13.8756 0
      vertex -9.1844 -13.3963 0
    endloop
  endfacet
  facet normal 0 0 -1
    outer loop
      vertex -23.8844 -1.42125 0
      vertex -9.1844 -13.3963 0
      vertex -11.3135 -12.7879 0
    endloop
  endfacet
  facet normal 0 0 -1
    outer loop
      vertex -23.8844 -1.42125 0
      vertex -11.3135 -12.7879 0
      vertex -13.3337 -12.0563 0
    endloop
  endfacet
  facet normal 0 0 -1
    outer loop
      vertex -23.8844 -1.42125 0
      vertex -13.3337 -12.0563 0
      vertex -15.2254 -11.2087 0
    endloop
  endfacet
  facet normal 0 0 -1
    outer loop
      vertex -23.8844 -1.42125 0
      vertex -15.2254 -11.2087 0
      vertex -16.9706 -10.253 0
    endloop
  endfacet
  facet normal 0 0 -1
    outer loop
      vertex -23.8844 -1.42125 0
      vertex -16.9706 -10.253 0
      vertex -18.5523 -9.1987 0
    endloop
  endfacet
  facet normal 0 0 -1
    outer loop
      vertex -23.8844 -1.42125 0
      vertex -18.5523 -9.1987 0
      vertex -19.9553 -8.05577 0
    endloop
  endfacet
  facet normal 0 0 -1
    outer loop
      vertex -23.8844 -1.42125 0
      vertex -19.9553 -8.05577 0
      vertex -21.1661 -6.83525 0
    endloop
  endfacet
  facet normal 0 0 -1
    outer loop
      vertex -23.8844 -1.42125 0
      vertex -21.1661 -6.83525 0
      vertex -22.1731 -5.54891 0
    endloop
  endfacet
  facet normal 0 0 -1
    outer loop
      vertex -23.8844 -1.42125 0
      vertex -22.1731 -5.54891 0
      vertex -22.9666 -4.20913 0
    endloop
  endfacet
  facet normal 0 0 -1
    outer loop
      vertex -23.8844 -1.42125 0
      vertex -22.9666 -4.20913 0
      vertex -23.5388 -2.82881 0
    endloop
  endfacet
  facet normal -0.99671 0.0810462 0
    outer loop
      vertex -24 0 0
      vertex -24 0 1.2
      vertex -23.8844 1.42125 0
    endloop
  endfacet
  facet normal -0.99671 0.0810462 0
    outer loop
      vertex -23.8844 1.42125 0
      vertex -24 0 1.2
      vertex -23.8844 1.42125 1.2
    endloop
  endfacet
  facet normal -0.99671 -0.0810462 0
    outer loop
      vertex -24 0 0
      vertex -23.8844 -1.42125 0
      vertex -24 0 1.2
    endloop
  endfacet
  facet normal -0.99671 -0.0810462 0
    outer loop
      vertex -24 0 1.2
      vertex -23.8844 -1.42125 0
      vertex -23.8844 -1.42125 1.2
    endloop
  endfacet
  facet normal -0.971157 -0.23844 0
    outer loop
      vertex -23.8844 -1.42125 0
      vertex -23.5388 -2.82881 0
      vertex -23.8844 -1.42125 1.2
    endloop
  endfacet
  facet normal -0.971157 -0.23844 0
    outer loop
      vertex -23.8844 -1.42125 1.2
      vertex -23.5388 -2.82881 0
      vertex -23.5388 -2.82881 1.2
    endloop
  endfacet
  facet normal -0.923753 -0.382988 0
    outer loop
      vertex -23.5388 -2.82881 0
      vertex -22.9666 -4.20913 0
      vertex -23.5388 -2.82881 1.2
    endloop
  endfacet
  facet normal -0.923753 -0.382988 0
    outer loop
      vertex -23.5388 -2.82881 1.2
      vertex -22.9666 -4.20913 0
      vertex -22.9666 -4.20913 1.2
    endloop
  endfacet
  facet normal -0.860428 -0.509571 0
    outer loop
      vertex -22.9666 -4.20913 0
      vertex -22.1731 -5.54891 0
      vertex -22.9666 -4.20913 1.2
    endloop
  endfacet
  facet normal -0.860428 -0.509571 0
    outer loop
      vertex -22.9666 -4.20913 1.2
      vertex -22.1731 -5.54891 0
      vertex -22.1731 -5.54891 1.2
    endloop
  endfacet
  facet normal -0.787417 -0.61642 0
    outer loop
      vertex -22.1731 -5.54891 0
      vertex -21.1661 -6.83525 0
      vertex -22.1731 -5.54891 1.2
    endloop
  endfacet
  facet normal -0.787417 -0.61642 0
    outer loop
      vertex -22.1731 -5.54891 1.2
      vertex -21.1661 -6.83525 0
      vertex -21.1661 -6.83525 1.2
    endloop
  endfacet
  facet normal -0.709915 -0.704287 0
    outer loop
      vertex -21.1661 -6.83525 0
      vertex -19.9553 -8.05577 0
      vertex -21.1661 -6.83525 1.2
    endloop
  endfacet
  facet normal -0.709915 -0.704287 0
    outer loop
      vertex -21.1661 -6.83525 1.2
      vertex -19.9553 -8.05577 0
      vertex -19.9553 -8.05577 1.2
    endloop
  endfacet
  facet normal -0.631584 -0.775307 0
    outer loop
      vertex -19.9553 -8.05577 1.2
      vertex -19.9553 -8.05577 0
      vertex -18.5523 -9.1987 0
    endloop
  endfacet
  facet normal -0.631584 -0.775307 0
    outer loop
      vertex -18.5523 -9.1987 1.2
      vertex -19.9553 -8.05577 1.2
      vertex -18.5523 -9.1987 0
    endloop
  endfacet
  facet normal -0.554659 -0.832078 0
    outer loop
      vertex -18.5523 -9.1987 1.2
      vertex -18.5523 -9.1987 0
      vertex -16.9706 -10.253 0
    endloop
  endfacet
  facet normal -0.554659 -0.832078 0
    outer loop
      vertex -16.9706 -10.253 1.2
      vertex -18.5523 -9.1987 1.2
      vertex -16.9706 -10.253 0
    endloop
  endfacet
  facet normal -0.480291 -0.877109 0
    outer loop
      vertex -16.9706 -10.253 1.2
      vertex -16.9706 -10.253 0
      vertex -15.2254 -11.2087 0
    endloop
  endfacet
  facet normal -0.480291 -0.877109 0
    outer loop
      vertex -15.2254 -11.2087 1.2
      vertex -16.9706 -10.253 1.2
      vertex -15.2254 -11.2087 0
    endloop
  endfacet
  facet normal -0.408908 -0.912576 0
    outer loop
      vertex -15.2254 -11.2087 1.2
      vertex -15.2254 -11.2087 0
      vertex -13.3337 -12.0563 0
    endloop
  endfacet
  facet normal -0.408908 -0.912576 0
    outer loop
      vertex -13.3337 -12.0563 1.2
      vertex -15.2254 -11.2087 1.2
      vertex -13.3337 -12.0563 0
    endloop
  endfacet
  facet normal -0.340486 -0.940249 0
    outer loop
      vertex -13.3337 -12.0563 1.2
      vertex -13.3337 -12.0563 0
      vertex -11.3135 -12.7879 0
    endloop
  endfacet
  facet normal -0.340486 -0.940249 0
    outer loop
      vertex -11.3135 -12.7879 1.2
      vertex -13.3337 -12.0563 1.2
      vertex -11.3135 -12.7879 0
    endloop
  endfacet
  facet normal -0.274753 -0.961515 0
    outer loop
      vertex -11.3135 -12.7879 1.2
      vertex -11.3135 -12.7879 0
      vertex -9.1844 -13.3963 0
    endloop
  endfacet
  facet normal -0.274753 -0.961515 0
    outer loop
      vertex -9.1844 -13.3963 1.2
      vertex -11.3135 -12.7879 1.2
      vertex -9.1844 -13.3963 0
    endloop
  endfacet
  facet normal -0.211294 -0.977423 0
    outer loop
      vertex -9.1844 -13.3963 1.2
      vertex -9.1844 -13.3963 0
      vertex -6.96683 -13.8756 0
    endloop
  endfacet
  facet normal -0.211294 -0.977423 0
    outer loop
      vertex -6.96683 -13.8756 1.2
      vertex -9.1844 -13.3963 1.2
      vertex -6.96683 -13.8756 0
    endloop
  endfacet
  facet normal -0.149632 -0.988742 0
    outer loop
      vertex -6.96683 -13.8756 1.2
      vertex -6.96683 -13.8756 0
      vertex -4.68217 -14.2214 0
    endloop
  endfacet
  facet normal -0.149632 -0.988742 0
    outer loop
      vertex -4.68217 -14.2214 1.2
      vertex -6.96683 -13.8756 1.2
      vertex -4.68217 -14.2214 0
    endloop
  endfacet
  facet normal -0.0892617 -0.996008 0
    outer loop
      vertex -4.68217 -14.2214 1.2
      vertex -4.68217 -14.2214 0
      vertex -2.35241 -14.4302 0
    endloop
  endfacet
  facet normal -0.0892617 -0.996008 0
    outer loop
      vertex -2.35241 -14.4302 1.2
      vertex -4.68217 -14.2214 1.2
      vertex -2.35241 -14.4302 0
    endloop
  endfacet
  facet normal -0.0296679 -0.99956 0
    outer loop
      vertex -2.35241 -14.4302 1.2
      vertex -2.35241 -14.4302 0
      vertex 0 -14.5 0
    endloop
  endfacet
  facet normal -0.0296679 -0.99956 0
    outer loop
      vertex 0 -14.5 1.2
      vertex -2.35241 -14.4302 1.2
      vertex 0 -14.5 0
    endloop
  endfacet
  facet normal 0.0296679 -0.99956 0
    outer loop
      vertex 0 -14.5 1.2
      vertex 0 -14.5 0
      vertex 2.35241 -14.4302 0
    endloop
  endfacet
  facet normal 0.0296679 -0.99956 0
    outer loop
      vertex 2.35241 -14.4302 1.2
      vertex 0 -14.5 1.2
      vertex 2.35241 -14.4302 0
    endloop
  endfacet
  facet normal 0.0892617 -0.996008 0
    outer loop
      vertex 2.35241 -14.4302 1.2
      vertex 2.35241 -14.4302 0
      vertex 4.68217 -14.2214 0
    endloop
  endfacet
  facet normal 0.0892617 -0.996008 0
    outer loop
      vertex 4.68217 -14.2214 1.2
      vertex 2.35241 -14.4302 1.2
      vertex 4.68217 -14.2214 0
    endloop
  endfacet
  facet normal 0.149632 -0.988742 0
    outer loop
      vertex 4.68217 -14.2214 1.2
      vertex 4.68217 -14.2214 0
      vertex 6.96683 -13.8756 0
    endloop
  endfacet
  facet normal 0.149632 -0.988742 0
    outer loop
      vertex 6.96683 -13.8756 1.2
      vertex 4.68217 -14.2214 1.2
      vertex 6.96683 -13.8756 0
    endloop
  endfacet
  facet normal 0.211294 -0.977423 0
    outer loop
      vertex 6.96683 -13.8756 1.2
      vertex 6.96683 -13.8756 0
      vertex 9.1844 -13.3963 0
    endloop
  endfacet
  facet normal 0.211294 -0.977423 0
    outer loop
      vertex 9.1844 -13.3963 1.2
      vertex 6.96683 -13.8756 1.2
      vertex 9.1844 -13.3963 0
    endloop
  endfacet
  facet normal 0.274753 -0.961515 0
    outer loop
      vertex 9.1844 -13.3963 1.2
      vertex 9.1844 -13.3963 0
      vertex 11.3135 -12.7879 0
    endloop
  endfacet
  facet normal 0.274753 -0.961515 0
    outer loop
      vertex 11.3135 -12.7879 1.2
      vertex 9.1844 -13.3963 1.2
      vertex 11.3135 -12.7879 0
    endloop
  endfacet
  facet normal 0.340486 -0.940249 0
    outer loop
      vertex 11.3135 -12.7879 1.2
      vertex 11.3135 -12.7879 0
      vertex 13.3337 -12.0563 0
    endloop
  endfacet
  facet normal 0.340486 -0.940249 0
    outer loop
      vertex 13.3337 -12.0563 1.2
      vertex 11.3135 -12.7879 1.2
      vertex 13.3337 -12.0563 0
    endloop
  endfacet
  facet normal 0.408908 -0.912576 0
    outer loop
      vertex 13.3337 -12.0563 1.2
      vertex 13.3337 -12.0563 0
      vertex 15.2254 -11.2087 0
    endloop
  endfacet
  facet normal 0.408908 -0.912576 0
    outer loop
      vertex 15.2254 -11.2087 1.2
      vertex 13.3337 -12.0563 1.2
      vertex 15.2254 -11.2087 0
    endloop
  endfacet
  facet normal 0.480291 -0.877109 0
    outer loop
      vertex 15.2254 -11.2087 1.2
      vertex 15.2254 -11.2087 0
      vertex 16.9706 -10.253 0
    endloop
  endfacet
  facet normal 0.480291 -0.877109 0
    outer loop
      vertex 16.9706 -10.253 1.2
      vertex 15.2254 -11.2087 1.2
      vertex 16.9706 -10.253 0
    endloop
  endfacet
  facet normal 0.554659 -0.832078 0
    outer loop
      vertex 16.9706 -10.253 1.2
      vertex 16.9706 -10.253 0
      vertex 18.5523 -9.1987 0
    endloop
  endfacet
  facet normal 0.554659 -0.832078 0
    outer loop
      vertex 18.5523 -9.1987 1.2
      vertex 16.9706 -10.253 1.2
      vertex 18.5523 -9.1987 0
    endloop
  endfacet
  facet normal 0.631584 -0.775307 0
    outer loop
      vertex 18.5523 -9.1987 1.2
      vertex 18.5523 -9.1987 0
      vertex 19.9553 -8.05577 0
    endloop
  endfacet
  facet normal 0.631584 -0.775307 0
    outer loop
      vertex 19.9553 -8.05577 1.2
      vertex 18.5523 -9.1987 1.2
      vertex 19.9553 -8.05577 0
    endloop
  endfacet
  facet normal 0.709915 -0.704287 0
    outer loop
      vertex 19.9553 -8.05577 1.2
      vertex 19.9553 -8.05577 0
      vertex 21.1661 -6.83525 0
    endloop
  endfacet
  facet normal 0.709915 -0.704287 0
    outer loop
      vertex 21.1661 -6.83525 1.2
      vertex 19.9553 -8.05577 1.2
      vertex 21.1661 -6.83525 0
    endloop
  endfacet
  facet normal 0.787417 -0.61642 0
    outer loop
      vertex 21.1661 -6.83525 1.2
      vertex 21.1661 -6.83525 0
      vertex 22.1731 -5.54891 0
    endloop
  endfacet
  facet normal 0.787417 -0.61642 0
    outer loop
      vertex 22.1731 -5.54891 1.2
      vertex 21.1661 -6.83525 1.2
      vertex 22.1731 -5.54891 0
    endloop
  endfacet
  facet normal 0.860428 -0.509571 0
    outer loop
      vertex 22.1731 -5.54891 1.2
      vertex 22.1731 -5.54891 0
      vertex 22.9666 -4.20913 0
    endloop
  endfacet
  facet normal 0.860428 -0.509571 0
    outer loop
      vertex 22.9666 -4.20913 1.2
      vertex 22.1731 -5.54891 1.2
      vertex 22.9666 -4.20913 0
    endloop
  endfacet
  facet normal 0.923753 -0.382988 0
    outer loop
      vertex 22.9666 -4.20913 1.2
      vertex 22.9666 -4.20913 0
      vertex 23.5388 -2.82881 0
    endloop
  endfacet
  facet normal 0.923753 -0.382988 0
    outer loop
      vertex 23.5388 -2.82881 1.2
      vertex 22.9666 -4.20913 1.2
      vertex 23.5388 -2.82881 0
    endloop
  endfacet
  facet normal 0.971157 -0.23844 0
    outer loop
      vertex 23.5388 -2.82881 1.2
      vertex 23.5388 -2.82881 0
      vertex 23.8844 -1.42125 0
    endloop
  endfacet
  facet normal 0.971157 -0.23844 0
    outer loop
      vertex 23.8844 -1.42125 1.2
      vertex 23.5388 -2.82881 1.2
      vertex 23.8844 -1.42125 0
    endloop
  endfacet
  facet normal 0.99671 -0.0810462 0
    outer loop
      vertex 23.8844 -1.42125 1.2
      vertex 23.8844 -1.42125 0
      vertex 24 0 0
    endloop
  endfacet
  facet normal 0.99671 -0.0810462 0
    outer loop
      vertex 24 0 1.2
      vertex 23.8844 -1.42125 1.2
      vertex 24 0 0
    endloop
  endfacet
  facet normal 0.99671 0.0810462 0
    outer loop
      vertex 24 0 0
      vertex 23.8844 1.42125 0
      vertex 23.8844 1.42125 1.2
    endloop
  endfacet
  facet normal 0.99671 0.0810462 0
    outer loop
      vertex 24 0 1.2
      vertex 24 0 0
      vertex 23.8844 1.42125 1.2
    endloop
  endfacet
  facet normal 0.971157 0.23844 0
    outer loop
      vertex 23.8844 1.42125 0
      vertex 23.5388 2.82881 0
      vertex 23.5388 2.82881 1.2
    endloop
  endfacet
  facet normal 0.971157 0.23844 0
    outer loop
      vertex 23.8844 1.42125 1.2
      vertex 23.8844 1.42125 0
      vertex 23.5388 2.82881 1.2
    endloop
  endfacet
  facet normal 0.923753 0.382988 0
    outer loop
      vertex 23.5388 2.82881 0
      vertex 22.9666 4.20913 0
      vertex 22.9666 4.20913 1.2
    endloop
  endfacet
  facet normal 0.923753 0.382988 0
    outer loop
      vertex 23.5388 2.82881 1.2
      vertex 23.5388 2.82881 0
      vertex 22.9666 4.20913 1.2
    endloop
  endfacet
  facet normal 0.860428 0.509571 0
    outer loop
      vertex 22.9666 4.20913 0
      vertex 22.1731 5.54891 0
      vertex 22.1731 5.54891 1.2
    endloop
  endfacet
  facet normal 0.860428 0.509571 0
    outer loop
      vertex 22.9666 4.20913 1.2
      vertex 22.9666 4.20913 0
      vertex 22.1731 5.54891 1.2
    endloop
  endfacet
  facet normal 0.787417 0.61642 0
    outer loop
      vertex 22.1731 5.54891 0
      vertex 21.1661 6.83525 0
      vertex 21.1661 6.83525 1.2
    endloop
  endfacet
  facet normal 0.787417 0.61642 0
    outer loop
      vertex 22.1731 5.54891 1.2
      vertex 22.1731 5.54891 0
      vertex 21.1661 6.83525 1.2
    endloop
  endfacet
  facet normal 0.709915 0.704287 0
    outer loop
      vertex 21.1661 6.83525 0
      vertex 19.9553 8.05577 0
      vertex 19.9553 8.05577 1.2
    endloop
  endfacet
  facet normal 0.709915 0.704287 0
    outer loop
      vertex 21.1661 6.83525 1.2
      vertex 21.1661 6.83525 0
      vertex 19.9553 8.05577 1.2
    endloop
  endfacet
  facet normal 0.631584 0.775307 0
    outer loop
      vertex 18.5523 9.1987 0
      vertex 18.5523 9.1987 1.2
      vertex 19.9553 8.05577 0
    endloop
  endfacet
  facet normal 0.631584 0.775307 0
    outer loop
      vertex 19.9553 8.05577 0
      vertex 18.5523 9.1987 1.2
      vertex 19.9553 8.05577 1.2
    endloop
  endfacet
  facet normal 0.554659 0.832078 0
    outer loop
      vertex 16.9706 10.253 0
      vertex 16.9706 10.253 1.2
      vertex 18.5523 9.1987 0
    endloop
  endfacet
  facet normal 0.554659 0.832078 0
    outer loop
      vertex 18.5523 9.1987 0
      vertex 16.9706 10.253 1.2
      vertex 18.5523 9.1987 1.2
    endloop
  endfacet
  facet normal 0.480291 0.877109 0
    outer loop
      vertex 15.2254 11.2087 0
      vertex 15.2254 11.2087 1.2
      vertex 16.9706 10.253 0
    endloop
  endfacet
  facet normal 0.480291 0.877109 0
    outer loop
      vertex 16.9706 10.253 0
      vertex 15.2254 11.2087 1.2
      vertex 16.9706 10.253 1.2
    endloop
  endfacet
  facet normal 0.408908 0.912576 0
    outer loop
      vertex 13.3337 12.0563 0
      vertex 13.3337 12.0563 1.2
      vertex 15.2254 11.2087 0
    endloop
  endfacet
  facet normal 0.408908 0.912576 0
    outer loop
      vertex 15.2254 11.2087 0
      vertex 13.3337 12.0563 1.2
      vertex 15.2254 11.2087 1.2
    endloop
  endfacet
  facet normal 0.340486 0.940249 0
    outer loop
      vertex 11.3135 12.7879 0
      vertex 11.3135 12.7879 1.2
      vertex 13.3337 12.0563 0
    endloop
  endfacet
  facet normal 0.340486 0.940249 0
    outer loop
      vertex 13.3337 12.0563 0
      vertex 11.3135 12.7879 1.2
      vertex 13.3337 12.0563 1.2
    endloop
  endfacet
  facet normal 0.274753 0.961515 0
    outer loop
      vertex 9.1844 13.3963 0
      vertex 9.1844 13.3963 1.2
      vertex 11.3135 12.7879 0
    endloop
  endfacet
  facet normal 0.274753 0.961515 0
    outer loop
      vertex 11.3135 12.7879 0
      vertex 9.1844 13.3963 1.2
      vertex 11.3135 12.7879 1.2
    endloop
  endfacet
  facet normal 0.211294 0.977423 0
    outer loop
      vertex 6.96683 13.8756 0
      vertex 6.96683 13.8756 1.2
      vertex 9.1844 13.3963 0
    endloop
  endfacet
  facet normal 0.211294 0.977423 0
    outer loop
      vertex 9.1844 13.3963 0
      vertex 6.96683 13.8756 1.2
      vertex 9.1844 13.3963 1.2
    endloop
  endfacet
  facet normal 0.149632 0.988742 0
    outer loop
      vertex 4.68217 14.2214 0
      vertex 4.68217 14.2214 1.2
      vertex 6.96683 13.8756 0
    endloop
  endfacet
  facet normal 0.149632 0.988742 0
    outer loop
      vertex 6.96683 13.8756 0
      vertex 4.68217 14.2214 1.2
      vertex 6.96683 13.8756 1.2
    endloop
  endfacet
  facet normal 0.0892617 0.996008 0
    outer loop
      vertex 2.35241 14.4302 0
      vertex 2.35241 14.4302 1.2
      vertex 4.68217 14.2214 0
    endloop
  endfacet
  facet normal 0.0892617 0.996008 0
    outer loop
      vertex 4.68217 14.2214 0
      vertex 2.35241 14.4302 1.2
      vertex 4.68217 14.2214 1.2
    endloop
  endfacet
  facet normal 0.0296679 0.99956 0
    outer loop
      vertex 0 14.5 0
      vertex 0 14.5 1.2
      vertex 2.35241 14.4302 0
    endloop
  endfacet
  facet normal 0.0296679 0.99956 0
    outer loop
      vertex 2.35241 14.4302 0
      vertex 0 14.5 1.2
      vertex 2.35241 14.4302 1.2
    endloop
  endfacet
  facet normal -0.0296679 0.99956 0
    outer loop
      vertex -2.35241 14.4302 0
      vertex -2.35241 14.4302 1.2
      vertex 0 14.5 0
    endloop
  endfacet
  facet normal -0.0296679 0.99956 0
    outer loop
      vertex 0 14.5 0
      vertex -2.35241 14.4302 1.2
      vertex 0 14.5 1.2
    endloop
  endfacet
  facet normal -0.0892617 0.996008 0
    outer loop
      vertex -4.68217 14.2214 0
      vertex -4.68217 14.2214 1.2
      vertex -2.35241 14.4302 0
    endloop
  endfacet
  facet normal -0.0892617 0.996008 0
    outer loop
      vertex -2.35241 14.4302 0
      vertex -4.68217 14.2214 1.2
      vertex -2.35241 14.4302 1.2
    endloop
  endfacet
  facet normal -0.149632 0.988742 0
    outer loop
      vertex -6.96683 13.8756 0
      vertex -6.96683 13.8756 1.2
      vertex -4.68217 14.2214 0
    endloop
  endfacet
  facet normal -0.149632 0.988742 0
    outer loop
      vertex -4.68217 14.2214 0
      vertex -6.96683 13.8756 1.2
      vertex -4.68217 14.2214 1.2
    endloop
  endfacet
  facet normal -0.211294 0.977423 0
    outer loop
      vertex -9.1844 13.3963 0
      vertex -9.1844 13.3963 1.2
      vertex -6.96683 13.8756 0
    endloop
  endfacet
  facet normal -0.211294 0.977423 0
    outer loop
      vertex -6.96683 13.8756 0
      vertex -9.1844 13.3963 1.2
      vertex -6.96683 13.8756 1.2
    endloop
  endfacet
  facet normal -0.274753 0.961515 0
    outer loop
      vertex -11.3135 12.7879 0
      vertex -11.3135 12.7879 1.2
      vertex -9.1844 13.3963 0
    endloop
  endfacet
  facet normal -0.274753 0.961515 0
    outer loop
      vertex -9.1844 13.3963 0
      vertex -11.3135 12.7879 1.2
      vertex -9.1844 13.3963 1.2
    endloop
  endfacet
  facet normal -0.340486 0.940249 0
    outer loop
      vertex -13.3337 12.0563 0
      vertex -13.3337 12.0563 1.2
      vertex -11.3135 12.7879 0
    endloop
  endfacet
  facet normal -0.340486 0.940249 0
    outer loop
      vertex -11.3135 12.7879 0
      vertex -13.3337 12.0563 1.2
      vertex -11.3135 12.7879 1.2
    endloop
  endfacet
  facet normal -0.408908 0.912576 0
    outer loop
      vertex -15.2254 11.2087 0
      vertex -15.2254 11.2087 1.2
      vertex -13.3337 12.0563 0
    endloop
  endfacet
  facet normal -0.408908 0.912576 0
    outer loop
      vertex -13.3337 12.0563 0
      vertex -15.2254 11.2087 1.2
      vertex -13.3337 12.0563 1.2
    endloop
  endfacet
  facet normal -0.480291 0.877109 0
    outer loop
      vertex -16.9706 10.253 0
      vertex -16.9706 10.253 1.2
      vertex -15.2254 11.2087 0
    endloop
  endfacet
  facet normal -0.480291 0.877109 0
    outer loop
      vertex -15.2254 11.2087 0
      vertex -16.9706 10.253 1.2
      vertex -15.2254 11.2087 1.2
    endloop
  endfacet
  facet normal -0.554659 0.832078 0
    outer loop
      vertex -18.5523 9.1987 0
      vertex -18.5523 9.1987 1.2
      vertex -16.9706 10.253 0
    endloop
  endfacet
  facet normal -0.554659 0.832078 0
    outer loop
      vertex -16.9706 10.253 0
      vertex -18.5523 9.1987 1.2
      vertex -16.9706 10.253 1.2
    endloop
  endfacet
  facet normal -0.631584 0.775307 0
    outer loop
      vertex -19.9553 8.05577 0
      vertex -19.9553 8.05577 1.2
      vertex -18.5523 9.1987 0
    endloop
  endfacet
  facet normal -0.631584 0.775307 0
    outer loop
      vertex -18.5523 9.1987 0
      vertex -19.9553 8.05577 1.2
      vertex -18.5523 9.1987 1.2
    endloop
  endfacet
  facet normal -0.709915 0.704287 0
    outer loop
      vertex -21.1661 6.83525 0
      vertex -21.1661 6.83525 1.2
      vertex -19.9553 8.05577 0
    endloop
  endfacet
  facet normal -0.709915 0.704287 0
    outer loop
      vertex -19.9553 8.05577 0
      vertex -21.1661 6.83525 1.2
      vertex -19.9553 8.05577 1.2
    endloop
  endfacet
  facet normal -0.787417 0.61642 0
    outer loop
      vertex -22.1731 5.54891 0
      vertex -22.1731 5.54891 1.2
      vertex -21.1661 6.83525 0
    endloop
  endfacet
  facet normal -0.787417 0.61642 0
    outer loop
      vertex -21.1661 6.83525 0
      vertex -22.1731 5.54891 1.2
      vertex -21.1661 6.83525 1.2
    endloop
  endfacet
  facet normal -0.860428 0.509571 0
    outer loop
      vertex -22.9666 4.20913 0
      vertex -22.9666 4.20913 1.2
      vertex -22.1731 5.54891 0
    endloop
  endfacet
  facet normal -0.860428 0.509571 0
    outer loop
      vertex -22.1731 5.54891 0
      vertex -22.9666 4.20913 1.2
      vertex -22.1731 5.54891 1.2
    endloop
  endfacet
  facet normal -0.923753 0.382988 0
    outer loop
      vertex -23.5388 2.82881 0
      vertex -23.5388 2.82881 1.2
      vertex -22.9666 4.20913 0
    endloop
  endfacet
  facet normal -0.923753 0.382988 0
    outer loop
      vertex -22.9666 4.20913 0
      vertex -23.5388 2.82881 1.2
      vertex -22.9666 4.20913 1.2
    endloop
  endfacet
  facet normal -0.971157 0.23844 0
    outer loop
      vertex -23.8844 1.42125 0
      vertex -23.8844 1.42125 1.2
      vertex -23.5388 2.82881 0
    endloop
  endfacet
  facet normal -0.971157 0.23844 0
    outer loop
      vertex -23.5388 2.82881 0
      vertex -23.8844 1.42125 1.2
      vertex -23.5388 2.82881 1.2
    endloop
  endfacet
  facet normal 0 0 1
    outer loop
      vertex -23.8844 -1.42125 1.2
      vertex -23.5388 -2.82881 1.2
      vertex -22.9666 -4.20913 1.2
    endloop
  endfacet
  facet normal 0 0 1
    outer loop
      vertex -21.1661 -6.83525 1.2
      vertex -23.8844 -1.42125 1.2
      vertex -22.1731 -5.54891 1.2
    endloop
  endfacet
  facet normal 0 0 1
    outer loop
      vertex -22.1731 -5.54891 1.2
      vertex -23.8844 -1.42125 1.2
      vertex -22.9666 -4.20913 1.2
    endloop
  endfacet
  facet normal 0 0 1
    outer loop
      vertex -19.9553 -8.05577 1.2
      vertex -23.8844 -1.42125 1.2
      vertex -21.1661 -6.83525 1.2
    endloop
  endfacet
  facet normal 0 0 1
    outer loop
      vertex -18.5523 -9.1987 1.2
      vertex -23.8844 -1.42125 1.2
      vertex -19.9553 -8.05577 1.2
    endloop
  endfacet
  facet normal 0 0 1
    outer loop
      vertex -16.9706 -10.253 1.2
      vertex -23.8844 -1.42125 1.2
      vertex -18.5523 -9.1987 1.2
    endloop
  endfacet
  facet normal 0 0 1
    outer loop
      vertex -15.2254 -11.2087 1.2
      vertex -23.8844 -1.42125 1.2
      vertex -16.9706 -10.253 1.2
    endloop
  endfacet
  facet normal 0 0 1
    outer loop
      vertex -13.3337 -12.0563 1.2
      vertex -23.8844 -1.42125 1.2
      vertex -15.2254 -11.2087 1.2
    endloop
  endfacet
  facet normal 0 0 1
    outer loop
      vertex -11.3135 -12.7879 1.2
      vertex -23.8844 -1.42125 1.2
      vertex -13.3337 -12.0563 1.2
    endloop
  endfacet
  facet normal 0 0 1
    outer loop
      vertex -9.1844 -13.3963 1.2
      vertex -23.8844 -1.42125 1.2
      vertex -11.3135 -12.7879 1.2
    endloop
  endfacet
  facet normal 0 0 1
    outer loop
      vertex -6.96683 -13.8756 1.2
      vertex -23.8844 -1.42125 1.2
      vertex -9.1844 -13.3963 1.2
    endloop
  endfacet
  facet normal 0 0 1
    outer loop
      vertex -4.68217 -14.2214 1.2
      vertex -23.8844 -1.42125 1.2
      vertex -6.96683 -13.8756 1.2
    endloop
  endfacet
  facet normal 0 0 1
    outer loop
      vertex -2.35241 -14.4302 1.2
      vertex -23.8844 -1.42125 1.2
      vertex -4.68217 -14.2214 1.2
    endloop
  endfacet
  facet normal 0 0 1
    outer loop
      vertex -6.5 -11.2583 1.2
      vertex -23.8844 -1.42125 1.2
      vertex -2.35241 -14.4302 1.2
    endloop
  endfacet
  facet normal 0 0 1
    outer loop
      vertex -6.5 -11.2583 1.2
      vertex -8.6987 -9.66088 1.2
      vertex -23.8844 -1.42125 1.2
    endloop
  endfacet
  facet normal 0 0 1
    outer loop
      vertex 1.35887 -12.9288 1.2
      vertex -1.35887 -12.9288 1.2
      vertex 2.35241 -14.4302 1.2
    endloop
  endfacet
  facet normal 0 0 1
    outer loop
      vertex 4.01722 -12.3637 1.2
      vertex 4.68217 -14.2214 1.2
      vertex 6.96683 -13.8756 1.2
    endloop
  endfacet
  facet normal 0 0 1
    outer loop
      vertex 6.5 -11.2583 1.2
      vertex 4.01722 -12.3637 1.2
      vertex 9.1844 -13.3963 1.2
    endloop
  endfacet
  facet normal 0 0 1
    outer loop
      vertex 8.6987 -9.66088 1.2
      vertex 11.3135 -12.7879 1.2
      vertex 13.3337 -12.0563 1.2
    endloop
  endfacet
  facet normal 0 0 1
    outer loop
      vertex 10.5172 -7.64121 1.2
      vertex 16.9706 -10.253 1.2
      vertex 18.5523 -9.1987 1.2
    endloop
  endfacet
  facet normal 0 0 1
    outer loop
      vertex 10.5172 -7.64121 1.2
      vertex 15.2254 -11.2087 1.2
      vertex 16.9706 -10.253 1.2
    endloop
  endfacet
  facet normal 0 0 1
    outer loop
      vertex -13 0 1.2
      vertex -12.7159 2.70285 1.2
      vertex -23.8844 -1.42125 1.2
    endloop
  endfacet
  facet normal 0 0 1
    outer loop
      vertex 12.7159 2.70285 1.2
      vertex 13 0 1.2
      vertex 23.8844 1.42125 1.2
    endloop
  endfacet
  facet normal 0 0 1
    outer loop
      vertex 11.8761 5.28758 1.2
      vertex 22.1731 5.54891 1.2
      vertex 21.1661 6.83525 1.2
    endloop
  endfacet
  facet normal 0 0 1
    outer loop
      vertex 10.5172 7.64121 1.2
      vertex 19.9553 8.05577 1.2
      vertex 18.5523 9.1987 1.2
    endloop
  endfacet
  facet normal 0 0 1
    outer loop
      vertex -12.7159 2.70285 1.2
      vertex -11.8761 5.28758 1.2
      vertex -23.8844 -1.42125 1.2
    endloop
  endfacet
  facet normal 0 0 1
    outer loop
      vertex 8.6987 9.66088 1.2
      vertex 10.5172 7.64121 1.2
      vertex 16.9706 10.253 1.2
    endloop
  endfacet
  facet normal 0 0 1
    outer loop
      vertex 4.01722 12.3637 1.2
      vertex 6.5 11.2583 1.2
      vertex 9.1844 13.3963 1.2
    endloop
  endfacet
  facet normal 0 0 1
    outer loop
      vertex -11.8761 5.28758 1.2
      vertex -10.5172 7.64121 1.2
      vertex -23.8844 -1.42125 1.2
    endloop
  endfacet
  facet normal 0 0 1
    outer loop
      vertex 1.35887 12.9288 1.2
      vertex 4.01722 12.3637 1.2
      vertex 6.96683 13.8756 1.2
    endloop
  endfacet
  facet normal 0 0 1
    outer loop
      vertex -1.35887 12.9288 1.2
      vertex 1.35887 12.9288 1.2
      vertex 2.35241 14.4302 1.2
    endloop
  endfacet
  facet normal 0 0 1
    outer loop
      vertex -4.68217 14.2214 1.2
      vertex -23.8844 -1.42125 1.2
      vertex -2.35241 14.4302 1.2
    endloop
  endfacet
  facet normal 0 0 1
    outer loop
      vertex -6.96683 13.8756 1.2
      vertex -23.8844 -1.42125 1.2
      vertex -4.68217 14.2214 1.2
    endloop
  endfacet
  facet normal 0 0 1
    outer loop
      vertex -9.1844 13.3963 1.2
      vertex -23.8844 -1.42125 1.2
      vertex -6.96683 13.8756 1.2
    endloop
  endfacet
  facet normal 0 0 1
    outer loop
      vertex -11.3135 12.7879 1.2
      vertex -23.8844 -1.42125 1.2
      vertex -9.1844 13.3963 1.2
    endloop
  endfacet
  facet normal 0 0 1
    outer loop
      vertex -13.3337 12.0563 1.2
      vertex -23.8844 -1.42125 1.2
      vertex -11.3135 12.7879 1.2
    endloop
  endfacet
  facet normal 0 0 1
    outer loop
      vertex -15.2254 11.2087 1.2
      vertex -23.8844 -1.42125 1.2
      vertex -13.3337 12.0563 1.2
    endloop
  endfacet
  facet normal 0 0 1
    outer loop
      vertex -16.9706 10.253 1.2
      vertex -23.8844 -1.42125 1.2
      vertex -15.2254 11.2087 1.2
    endloop
  endfacet
  facet normal 0 0 1
    outer loop
      vertex -18.5523 9.1987 1.2
      vertex -23.8844 -1.42125 1.2
      vertex -16.9706 10.253 1.2
    endloop
  endfacet
  facet normal 0 0 1
    outer loop
      vertex -19.9553 8.05577 1.2
      vertex -23.8844 -1.42125 1.2
      vertex -18.5523 9.1987 1.2
    endloop
  endfacet
  facet normal 0 0 1
    outer loop
      vertex -21.1661 6.83525 1.2
      vertex -23.8844 -1.42125 1.2
      vertex -19.9553 8.05577 1.2
    endloop
  endfacet
  facet normal 0 0 1
    outer loop
      vertex -22.1731 5.54891 1.2
      vertex -23.8844 -1.42125 1.2
      vertex -21.1661 6.83525 1.2
    endloop
  endfacet
  facet normal 0 0 1
    outer loop
      vertex -22.9666 4.20913 1.2
      vertex -23.8844 -1.42125 1.2
      vertex -22.1731 5.54891 1.2
    endloop
  endfacet
  facet normal 0 0 1
    outer loop
      vertex -23.5388 2.82881 1.2
      vertex -23.8844 -1.42125 1.2
      vertex -22.9666 4.20913 1.2
    endloop
  endfacet
  facet normal 0 0 1
    outer loop
      vertex -23.8844 1.42125 1.2
      vertex -23.8844 -1.42125 1.2
      vertex -23.5388 2.82881 1.2
    endloop
  endfacet
  facet normal 0 0 1
    outer loop
      vertex -24 0 1.2
      vertex -23.8844 -1.42125 1.2
      vertex -23.8844 1.42125 1.2
    endloop
  endfacet
  facet normal 0 0 1
    outer loop
      vertex 12.7159 2.70285 1.2
      vertex 23.8844 1.42125 1.2
      vertex 23.5388 2.82881 1.2
    endloop
  endfacet
  facet normal 0 0 1
    outer loop
      vertex 8.6987 9.66088 1.2
      vertex 16.9706 10.253 1.2
      vertex 15.2254 11.2087 1.2
    endloop
  endfacet
  facet normal 0 0 1
    outer loop
      vertex 6.5 11.2583 1.2
      vertex 13.3337 12.0563 1.2
      vertex 11.3135 12.7879 1.2
    endloop
  endfacet
  facet normal 0 0 1
    outer loop
      vertex 6.5 11.2583 1.2
      vertex 8.6987 9.66088 1.2
      vertex 13.3337 12.0563 1.2
    endloop
  endfacet
  facet normal 0 0 1
    outer loop
      vertex -8.6987 9.66088 1.2
      vertex -23.8844 -1.42125 1.2
      vertex -10.5172 7.64121 1.2
    endloop
  endfacet
  facet normal 0 0 1
    outer loop
      vertex -2.35241 14.4302 1.2
      vertex -23.8844 -1.42125 1.2
      vertex -8.6987 9.66088 1.2
    endloop
  endfacet
  facet normal 0 0 1
    outer loop
      vertex -4.01722 12.3637 1.2
      vertex -1.35887 12.9288 1.2
      vertex 0 14.5 1.2
    endloop
  endfacet
  facet normal 0 0 1
    outer loop
      vertex -2.35241 14.4302 1.2
      vertex -8.6987 9.66088 1.2
      vertex -6.5 11.2583 1.2
    endloop
  endfacet
  facet normal 0 0 1
    outer loop
      vertex -2.35241 14.4302 1.2
      vertex -4.01722 12.3637 1.2
      vertex 0 14.5 1.2
    endloop
  endfacet
  facet normal 0 0 1
    outer loop
      vertex 0 14.5 1.2
      vertex -1.35887 12.9288 1.2
      vertex 2.35241 14.4302 1.2
    endloop
  endfacet
  facet normal 0 0 1
    outer loop
      vertex -6.5 11.2583 1.2
      vertex -4.01722 12.3637 1.2
      vertex -2.35241 14.4302 1.2
    endloop
  endfacet
  facet normal 0 0 1
    outer loop
      vertex 2.35241 14.4302 1.2
      vertex 1.35887 12.9288 1.2
      vertex 4.68217 14.2214 1.2
    endloop
  endfacet
  facet normal 0 0 1
    outer loop
      vertex 6.96683 13.8756 1.2
      vertex 4.01722 12.3637 1.2
      vertex 9.1844 13.3963 1.2
    endloop
  endfacet
  facet normal 0 0 1
    outer loop
      vertex 1.35887 12.9288 1.2
      vertex 6.96683 13.8756 1.2
      vertex 4.68217 14.2214 1.2
    endloop
  endfacet
  facet normal 0 0 1
    outer loop
      vertex 9.1844 13.3963 1.2
      vertex 6.5 11.2583 1.2
      vertex 11.3135 12.7879 1.2
    endloop
  endfacet
  facet normal 0 0 1
    outer loop
      vertex 8.6987 -9.66088 1.2
      vertex 6.5 -11.2583 1.2
      vertex 11.3135 -12.7879 1.2
    endloop
  endfacet
  facet normal 0 0 1
    outer loop
      vertex 13.3337 12.0563 1.2
      vertex 8.6987 9.66088 1.2
      vertex 15.2254 11.2087 1.2
    endloop
  endfacet
  facet normal 0 0 1
    outer loop
      vertex 16.9706 10.253 1.2
      vertex 10.5172 7.64121 1.2
      vertex 18.5523 9.1987 1.2
    endloop
  endfacet
  facet normal 0 0 1
    outer loop
      vertex 11.8761 5.28758 1.2
      vertex 12.7159 2.70285 1.2
      vertex 22.9666 4.20913 1.2
    endloop
  endfacet
  facet normal 0 0 1
    outer loop
      vertex 19.9553 8.05577 1.2
      vertex 11.8761 5.28758 1.2
      vertex 21.1661 6.83525 1.2
    endloop
  endfacet
  facet normal 0 0 1
    outer loop
      vertex 22.9666 4.20913 1.2
      vertex 12.7159 2.70285 1.2
      vertex 23.5388 2.82881 1.2
    endloop
  endfacet
  facet normal 0 0 1
    outer loop
      vertex 10.5172 7.64121 1.2
      vertex 11.8761 5.28758 1.2
      vertex 19.9553 8.05577 1.2
    endloop
  endfacet
  facet normal 0 0 1
    outer loop
      vertex 23.8844 1.42125 1.2
      vertex 13 0 1.2
      vertex 24 0 1.2
    endloop
  endfacet
  facet normal 0 0 1
    outer loop
      vertex 11.8761 5.28758 1.2
      vertex 22.9666 4.20913 1.2
      vertex 22.1731 5.54891 1.2
    endloop
  endfacet
  facet normal 0 0 1
    outer loop
      vertex 23.5388 -2.82881 1.2
      vertex 12.7159 -2.70285 1.2
      vertex 22.9666 -4.20913 1.2
    endloop
  endfacet
  facet normal 0 0 1
    outer loop
      vertex 11.8761 -5.28758 1.2
      vertex 10.5172 -7.64121 1.2
      vertex 19.9553 -8.05577 1.2
    endloop
  endfacet
  facet normal 0 0 1
    outer loop
      vertex 22.1731 -5.54891 1.2
      vertex 11.8761 -5.28758 1.2
      vertex 21.1661 -6.83525 1.2
    endloop
  endfacet
  facet normal 0 0 1
    outer loop
      vertex 19.9553 -8.05577 1.2
      vertex 10.5172 -7.64121 1.2
      vertex 18.5523 -9.1987 1.2
    endloop
  endfacet
  facet normal 0 0 1
    outer loop
      vertex 15.2254 -11.2087 1.2
      vertex 8.6987 -9.66088 1.2
      vertex 13.3337 -12.0563 1.2
    endloop
  endfacet
  facet normal 0 0 1
    outer loop
      vertex 11.3135 -12.7879 1.2
      vertex 6.5 -11.2583 1.2
      vertex 9.1844 -13.3963 1.2
    endloop
  endfacet
  facet normal 0 0 1
    outer loop
      vertex 9.1844 -13.3963 1.2
      vertex 4.01722 -12.3637 1.2
      vertex 6.96683 -13.8756 1.2
    endloop
  endfacet
  facet normal 0 0 1
    outer loop
      vertex -11.8761 -5.28758 1.2
      vertex -12.7159 -2.70285 1.2
      vertex -23.8844 -1.42125 1.2
    endloop
  endfacet
  facet normal 0 0 1
    outer loop
      vertex 4.68217 -14.2214 1.2
      vertex 1.35887 -12.9288 1.2
      vertex 2.35241 -14.4302 1.2
    endloop
  endfacet
  facet normal 0 0 1
    outer loop
      vertex 2.35241 -14.4302 1.2
      vertex -1.35887 -12.9288 1.2
      vertex 0 -14.5 1.2
    endloop
  endfacet
  facet normal 0 0 1
    outer loop
      vertex 0 -14.5 1.2
      vertex -4.01722 -12.3637 1.2
      vertex -2.35241 -14.4302 1.2
    endloop
  endfacet
  facet normal 0 0 1
    outer loop
      vertex -4.01722 -12.3637 1.2
      vertex -6.5 -11.2583 1.2
      vertex -2.35241 -14.4302 1.2
    endloop
  endfacet
  facet normal 0 0 1
    outer loop
      vertex -8.6987 -9.66088 1.2
      vertex -10.5172 -7.64121 1.2
      vertex -23.8844 -1.42125 1.2
    endloop
  endfacet
  facet normal 0 0 1
    outer loop
      vertex -1.35887 -12.9288 1.2
      vertex -4.01722 -12.3637 1.2
      vertex 0 -14.5 1.2
    endloop
  endfacet
  facet normal 0 0 1
    outer loop
      vertex 4.01722 -12.3637 1.2
      vertex 1.35887 -12.9288 1.2
      vertex 4.68217 -14.2214 1.2
    endloop
  endfacet
  facet normal 0 0 1
    outer loop
      vertex -10.5172 -7.64121 1.2
      vertex -11.8761 -5.28758 1.2
      vertex -23.8844 -1.42125 1.2
    endloop
  endfacet
  facet normal 0 0 1
    outer loop
      vertex 10.5172 -7.64121 1.2
      vertex 8.6987 -9.66088 1.2
      vertex 15.2254 -11.2087 1.2
    endloop
  endfacet
  facet normal 0 0 1
    outer loop
      vertex 13 0 1.2
      vertex 12.7159 -2.70285 1.2
      vertex 23.5388 -2.82881 1.2
    endloop
  endfacet
  facet normal 0 0 1
    outer loop
      vertex 13 0 1.2
      vertex 23.5388 -2.82881 1.2
      vertex 23.8844 -1.42125 1.2
    endloop
  endfacet
  facet normal 0 0 1
    outer loop
      vertex 13 0 1.2
      vertex 23.8844 -1.42125 1.2
      vertex 24 0 1.2
    endloop
  endfacet
  facet normal 0 0 1
    outer loop
      vertex 12.7159 -2.70285 1.2
      vertex 11.8761 -5.28758 1.2
      vertex 22.1731 -5.54891 1.2
    endloop
  endfacet
  facet normal 0 0 1
    outer loop
      vertex 12.7159 -2.70285 1.2
      vertex 22.1731 -5.54891 1.2
      vertex 22.9666 -4.20913 1.2
    endloop
  endfacet
  facet normal 0 0 1
    outer loop
      vertex 11.8761 -5.28758 1.2
      vertex 19.9553 -8.05577 1.2
      vertex 21.1661 -6.83525 1.2
    endloop
  endfacet
  facet normal 0 0 1
    outer loop
      vertex -12.7159 -2.70285 1.2
      vertex -13 0 1.2
      vertex -23.8844 -1.42125 1.2
    endloop
  endfacet
  facet normal -0.993295 0.104399 0.0496648
    outer loop
      vertex -12.7159 2.70285 1.2
      vertex -13 0 1.2
      vertex -12.2268 2.5989 11.2
    endloop
  endfacet
  facet normal -0.993295 0.104399 0.0496647
    outer loop
      vertex -12.2268 2.5989 11.2
      vertex -13 0 1.2
      vertex -12.5 0 11.2
    endloop
  endfacet
  facet normal -0.993295 -0.104399 0.0496647
    outer loop
      vertex -12.5 0 11.2
      vertex -13 0 1.2
      vertex -12.7159 -2.70285 1.2
    endloop
  endfacet
  facet normal -0.993295 -0.104399 0.0496648
    outer loop
      vertex -12.5 0 11.2
      vertex -12.7159 -2.70285 1.2
      vertex -12.2268 -2.5989 11.2
    endloop
  endfacet
  facet normal -0.949883 -0.308636 0.0496648
    outer loop
      vertex -12.2268 -2.5989 11.2
      vertex -12.7159 -2.70285 1.2
      vertex -11.8761 -5.28758 1.2
    endloop
  endfacet
  facet normal -0.949883 -0.308636 0.0496647
    outer loop
      vertex -11.4193 -5.08421 11.2
      vertex -12.2268 -2.5989 11.2
      vertex -11.8761 -5.28758 1.2
    endloop
  endfacet
  facet normal -0.864957 -0.499383 0.0496647
    outer loop
      vertex -11.4193 -5.08421 11.2
      vertex -11.8761 -5.28758 1.2
      vertex -10.5172 -7.64121 1.2
    endloop
  endfacet
  facet normal -0.864957 -0.499383 0.0496647
    outer loop
      vertex -10.1127 -7.34732 11.2
      vertex -11.4193 -5.08421 11.2
      vertex -10.5172 -7.64121 1.2
    endloop
  endfacet
  facet normal -0.742228 -0.668305 0.0496647
    outer loop
      vertex -10.1127 -7.34732 11.2
      vertex -10.5172 -7.64121 1.2
      vertex -8.6987 -9.66088 1.2
    endloop
  endfacet
  facet normal -0.742228 -0.668305 0.0496647
    outer loop
      vertex -8.36413 -9.28931 11.2
      vertex -10.1127 -7.34732 11.2
      vertex -8.6987 -9.66088 1.2
    endloop
  endfacet
  facet normal -0.58706 -0.808019 0.0496648
    outer loop
      vertex -8.36413 -9.28931 11.2
      vertex -8.6987 -9.66088 1.2
      vertex -6.5 -11.2583 1.2
    endloop
  endfacet
  facet normal -0.58706 -0.808019 0.0496647
    outer loop
      vertex -6.25 -10.8253 11.2
      vertex -8.36413 -9.28931 11.2
      vertex -6.5 -11.2583 1.2
    endloop
  endfacet
  facet normal -0.406235 -0.912418 0.0496647
    outer loop
      vertex -6.25 -10.8253 11.2
      vertex -6.5 -11.2583 1.2
      vertex -4.01722 -12.3637 1.2
    endloop
  endfacet
  facet normal -0.406234 -0.912418 0.0496648
    outer loop
      vertex -3.86271 -11.8882 11.2
      vertex -6.25 -10.8253 11.2
      vertex -4.01722 -12.3637 1.2
    endloop
  endfacet
  facet normal -0.207655 -0.976941 0.0496648
    outer loop
      vertex -3.86271 -11.8882 11.2
      vertex -4.01722 -12.3637 1.2
      vertex -1.35887 -12.9288 1.2
    endloop
  endfacet
  facet normal -0.207655 -0.97694 0.0496647
    outer loop
      vertex -1.30661 -12.4315 11.2
      vertex -3.86271 -11.8882 11.2
      vertex -1.35887 -12.9288 1.2
    endloop
  endfacet
  facet normal 0 -0.998766 0.0496647
    outer loop
      vertex -1.30661 -12.4315 11.2
      vertex -1.35887 -12.9288 1.2
      vertex 1.35887 -12.9288 1.2
    endloop
  endfacet
  facet normal 0 -0.998766 0.0496647
    outer loop
      vertex 1.30661 -12.4315 11.2
      vertex -1.30661 -12.4315 11.2
      vertex 1.35887 -12.9288 1.2
    endloop
  endfacet
  facet normal 0.207655 -0.976941 0.0496647
    outer loop
      vertex 4.01722 -12.3637 1.2
      vertex 1.30661 -12.4315 11.2
      vertex 1.35887 -12.9288 1.2
    endloop
  endfacet
  facet normal 0.207655 -0.97694 0.0496648
    outer loop
      vertex 3.86271 -11.8882 11.2
      vertex 1.30661 -12.4315 11.2
      vertex 4.01722 -12.3637 1.2
    endloop
  endfacet
  facet normal 0.406235 -0.912418 0.0496648
    outer loop
      vertex 6.5 -11.2583 1.2
      vertex 3.86271 -11.8882 11.2
      vertex 4.01722 -12.3637 1.2
    endloop
  endfacet
  facet normal 0.406234 -0.912418 0.0496647
    outer loop
      vertex 6.25 -10.8253 11.2
      vertex 3.86271 -11.8882 11.2
      vertex 6.5 -11.2583 1.2
    endloop
  endfacet
  facet normal 0.58706 -0.808019 0.0496647
    outer loop
      vertex 8.6987 -9.66088 1.2
      vertex 6.25 -10.8253 11.2
      vertex 6.5 -11.2583 1.2
    endloop
  endfacet
  facet normal 0.58706 -0.808019 0.0496648
    outer loop
      vertex 8.36413 -9.28931 11.2
      vertex 6.25 -10.8253 11.2
      vertex 8.6987 -9.66088 1.2
    endloop
  endfacet
  facet normal 0.742228 -0.668305 0.0496647
    outer loop
      vertex 10.5172 -7.64121 1.2
      vertex 8.36413 -9.28931 11.2
      vertex 8.6987 -9.66088 1.2
    endloop
  endfacet
  facet normal 0.742228 -0.668305 0.0496647
    outer loop
      vertex 10.1127 -7.34732 11.2
      vertex 8.36413 -9.28931 11.2
      vertex 10.5172 -7.64121 1.2
    endloop
  endfacet
  facet normal 0.864957 -0.499383 0.0496647
    outer loop
      vertex 11.8761 -5.28758 1.2
      vertex 10.1127 -7.34732 11.2
      vertex 10.5172 -7.64121 1.2
    endloop
  endfacet
  facet normal 0.864957 -0.499383 0.0496647
    outer loop
      vertex 11.4193 -5.08421 11.2
      vertex 10.1127 -7.34732 11.2
      vertex 11.8761 -5.28758 1.2
    endloop
  endfacet
  facet normal 0.949883 -0.308636 0.0496647
    outer loop
      vertex 12.7159 -2.70285 1.2
      vertex 11.4193 -5.08421 11.2
      vertex 11.8761 -5.28758 1.2
    endloop
  endfacet
  facet normal 0.949883 -0.308636 0.0496648
    outer loop
      vertex 12.2268 -2.5989 11.2
      vertex 11.4193 -5.08421 11.2
      vertex 12.7159 -2.70285 1.2
    endloop
  endfacet
  facet normal 0.993295 -0.104399 0.0496648
    outer loop
      vertex 13 0 1.2
      vertex 12.2268 -2.5989 11.2
      vertex 12.7159 -2.70285 1.2
    endloop
  endfacet
  facet normal 0.993295 -0.104399 0.0496647
    outer loop
      vertex 12.5 0 11.2
      vertex 12.2268 -2.5989 11.2
      vertex 13 0 1.2
    endloop
  endfacet
  facet normal 0.993295 0.104399 0.0496647
    outer loop
      vertex 12.7159 2.70285 1.2
      vertex 12.5 0 11.2
      vertex 13 0 1.2
    endloop
  endfacet
  facet normal 0.993295 0.104399 0.0496648
    outer loop
      vertex 12.7159 2.70285 1.2
      vertex 12.2268 2.5989 11.2
      vertex 12.5 0 11.2
    endloop
  endfacet
  facet normal 0.949883 0.308636 0.0496648
    outer loop
      vertex 12.7159 2.70285 1.2
      vertex 11.8761 5.28758 1.2
      vertex 12.2268 2.5989 11.2
    endloop
  endfacet
  facet normal 0.949883 0.308636 0.0496647
    outer loop
      vertex 11.8761 5.28758 1.2
      vertex 11.4193 5.08421 11.2
      vertex 12.2268 2.5989 11.2
    endloop
  endfacet
  facet normal 0.864957 0.499383 0.0496647
    outer loop
      vertex 11.8761 5.28758 1.2
      vertex 10.5172 7.64121 1.2
      vertex 11.4193 5.08421 11.2
    endloop
  endfacet
  facet normal 0.864957 0.499383 0.0496647
    outer loop
      vertex 10.5172 7.64121 1.2
      vertex 10.1127 7.34732 11.2
      vertex 11.4193 5.08421 11.2
    endloop
  endfacet
  facet normal 0.742228 0.668305 0.0496647
    outer loop
      vertex 10.5172 7.64121 1.2
      vertex 8.6987 9.66088 1.2
      vertex 10.1127 7.34732 11.2
    endloop
  endfacet
  facet normal 0.742228 0.668305 0.0496647
    outer loop
      vertex 8.6987 9.66088 1.2
      vertex 8.36413 9.28931 11.2
      vertex 10.1127 7.34732 11.2
    endloop
  endfacet
  facet normal 0.58706 0.808019 0.0496648
    outer loop
      vertex 8.6987 9.66088 1.2
      vertex 6.5 11.2583 1.2
      vertex 8.36413 9.28931 11.2
    endloop
  endfacet
  facet normal 0.58706 0.808019 0.0496647
    outer loop
      vertex 6.5 11.2583 1.2
      vertex 6.25 10.8253 11.2
      vertex 8.36413 9.28931 11.2
    endloop
  endfacet
  facet normal 0.406235 0.912418 0.0496647
    outer loop
      vertex 6.5 11.2583 1.2
      vertex 4.01722 12.3637 1.2
      vertex 6.25 10.8253 11.2
    endloop
  endfacet
  facet normal 0.406234 0.912418 0.0496648
    outer loop
      vertex 4.01722 12.3637 1.2
      vertex 3.86271 11.8882 11.2
      vertex 6.25 10.8253 11.2
    endloop
  endfacet
  facet normal 0.207655 0.976941 0.0496648
    outer loop
      vertex 4.01722 12.3637 1.2
      vertex 1.35887 12.9288 1.2
      vertex 3.86271 11.8882 11.2
    endloop
  endfacet
  facet normal 0.207655 0.97694 0.0496647
    outer loop
      vertex 1.35887 12.9288 1.2
      vertex 1.30661 12.4315 11.2
      vertex 3.86271 11.8882 11.2
    endloop
  endfacet
  facet normal 0 0.998766 0.0496647
    outer loop
      vertex -1.35887 12.9288 1.2
      vertex -1.30661 12.4315 11.2
      vertex 1.35887 12.9288 1.2
    endloop
  endfacet
  facet normal 0 0.998766 0.0496647
    outer loop
      vertex 1.35887 12.9288 1.2
      vertex -1.30661 12.4315 11.2
      vertex 1.30661 12.4315 11.2
    endloop
  endfacet
  facet normal -0.207655 0.976941 0.0496647
    outer loop
      vertex -1.35887 12.9288 1.2
      vertex -4.01722 12.3637 1.2
      vertex -1.30661 12.4315 11.2
    endloop
  endfacet
  facet normal -0.207655 0.97694 0.0496648
    outer loop
      vertex -1.30661 12.4315 11.2
      vertex -4.01722 12.3637 1.2
      vertex -3.86271 11.8882 11.2
    endloop
  endfacet
  facet normal -0.406235 0.912418 0.0496648
    outer loop
      vertex -4.01722 12.3637 1.2
      vertex -6.5 11.2583 1.2
      vertex -3.86271 11.8882 11.2
    endloop
  endfacet
  facet normal -0.406234 0.912418 0.0496647
    outer loop
      vertex -3.86271 11.8882 11.2
      vertex -6.5 11.2583 1.2
      vertex -6.25 10.8253 11.2
    endloop
  endfacet
  facet normal -0.58706 0.808019 0.0496647
    outer loop
      vertex -6.5 11.2583 1.2
      vertex -8.6987 9.66088 1.2
      vertex -6.25 10.8253 11.2
    endloop
  endfacet
  facet normal -0.58706 0.808019 0.0496648
    outer loop
      vertex -6.25 10.8253 11.2
      vertex -8.6987 9.66088 1.2
      vertex -8.36413 9.28931 11.2
    endloop
  endfacet
  facet normal -0.742228 0.668305 0.0496647
    outer loop
      vertex -8.6987 9.66088 1.2
      vertex -10.5172 7.64121 1.2
      vertex -8.36413 9.28931 11.2
    endloop
  endfacet
  facet normal -0.742228 0.668305 0.0496647
    outer loop
      vertex -8.36413 9.28931 11.2
      vertex -10.5172 7.64121 1.2
      vertex -10.1127 7.34732 11.2
    endloop
  endfacet
  facet normal -0.864957 0.499383 0.0496647
    outer loop
      vertex -10.5172 7.64121 1.2
      vertex -11.8761 5.28758 1.2
      vertex -10.1127 7.34732 11.2
    endloop
  endfacet
  facet normal -0.864957 0.499383 0.0496647
    outer loop
      vertex -10.1127 7.34732 11.2
      vertex -11.8761 5.28758 1.2
      vertex -11.4193 5.08421 11.2
    endloop
  endfacet
  facet normal -0.949883 0.308636 0.0496647
    outer loop
      vertex -11.8761 5.28758 1.2
      vertex -12.7159 2.70285 1.2
      vertex -11.4193 5.08421 11.2
    endloop
  endfacet
  facet normal -0.949883 0.308636 0.0496648
    outer loop
      vertex -11.4193 5.08421 11.2
      vertex -12.7159 2.70285 1.2
      vertex -12.2268 2.5989 11.2
    endloop
  endfacet
  facet normal 0 0 1
    outer loop
      vertex -12.2268 2.5989 11.2
      vertex -12.5 0 11.2
      vertex -12.2268 -2.5989 11.2
    endloop
  endfacet
  facet normal 0 0 1
    outer loop
      vertex -10.1127 -7.34732 11.2
      vertex -12.2268 2.5989 11.2
      vertex -11.4193 -5.08421 11.2
    endloop
  endfacet
  facet normal 0 0 1
    outer loop
      vertex -11.4193 -5.08421 11.2
      vertex -12.2268 2.5989 11.2
      vertex -12.2268 -2.5989 11.2
    endloop
  endfacet
  facet normal 0 0 1
    outer loop
      vertex -8.36413 -9.28931 11.2
      vertex -12.2268 2.5989 11.2
      vertex -10.1127 -7.34732 11.2
    endloop
  endfacet
  facet normal 0 0 1
    outer loop
      vertex -10.2706 -2.18307 11.2
      vertex -12.2268 2.5989 11.2
      vertex -8.36413 -9.28931 11.2
    endloop
  endfacet
  facet normal 0 0 1
    outer loop
      vertex 8.49468 -6.17174 11.2
      vertex 7.02587 -7.80302 11.2
      vertex 10.1127 -7.34732 11.2
    endloop
  endfacet
  facet normal 0 0 1
    outer loop
      vertex -10.2706 2.18307 11.2
      vertex -9.59223 4.27074 11.2
      vertex -12.2268 2.5989 11.2
    endloop
  endfacet
  facet normal 0 0 1
    outer loop
      vertex -1.09755 -10.4425 11.2
      vertex -3.24468 -9.98609 11.2
      vertex -1.30661 -12.4315 11.2
    endloop
  endfacet
  facet normal 0 0 1
    outer loop
      vertex 9.59223 4.27074 11.2
      vertex 10.2706 2.18307 11.2
      vertex 12.2268 2.5989 11.2
    endloop
  endfacet
  facet normal 0 0 1
    outer loop
      vertex 8.49468 6.17174 11.2
      vertex 9.59223 4.27074 11.2
      vertex 11.4193 5.08421 11.2
    endloop
  endfacet
  facet normal 0 0 1
    outer loop
      vertex 7.02587 7.80302 11.2
      vertex 8.49468 6.17174 11.2
      vertex 10.1127 7.34732 11.2
    endloop
  endfacet
  facet normal 0 0 1
    outer loop
      vertex 1.09755 10.4425 11.2
      vertex 3.24468 9.98609 11.2
      vertex 3.86271 11.8882 11.2
    endloop
  endfacet
  facet normal 0 0 1
    outer loop
      vertex -3.24468 9.98609 11.2
      vertex -1.09755 10.4425 11.2
      vertex 1.30661 12.4315 11.2
    endloop
  endfacet
  facet normal 0 0 1
    outer loop
      vertex -6.25 10.8253 11.2
      vertex -12.2268 2.5989 11.2
      vertex -3.86271 11.8882 11.2
    endloop
  endfacet
  facet normal 0 0 1
    outer loop
      vertex -8.36413 9.28931 11.2
      vertex -12.2268 2.5989 11.2
      vertex -6.25 10.8253 11.2
    endloop
  endfacet
  facet normal 0 0 1
    outer loop
      vertex -10.1127 7.34732 11.2
      vertex -12.2268 2.5989 11.2
      vertex -8.36413 9.28931 11.2
    endloop
  endfacet
  facet normal 0 0 1
    outer loop
      vertex -11.4193 5.08421 11.2
      vertex -12.2268 2.5989 11.2
      vertex -10.1127 7.34732 11.2
    endloop
  endfacet
  facet normal 0 0 1
    outer loop
      vertex -9.59223 -4.27074 11.2
      vertex -10.2706 -2.18307 11.2
      vertex -8.36413 -9.28931 11.2
    endloop
  endfacet
  facet normal 0 0 1
    outer loop
      vertex 9.59223 -4.27074 11.2
      vertex 8.49468 -6.17174 11.2
      vertex 11.4193 -5.08421 11.2
    endloop
  endfacet
  facet normal 0 0 1
    outer loop
      vertex 3.24468 9.98609 11.2
      vertex 5.25 9.09327 11.2
      vertex 6.25 10.8253 11.2
    endloop
  endfacet
  facet normal 0 0 1
    outer loop
      vertex -3.86271 11.8882 11.2
      vertex -12.2268 2.5989 11.2
      vertex -8.49468 6.17174 11.2
    endloop
  endfacet
  facet normal 0 0 1
    outer loop
      vertex -3.86271 11.8882 11.2
      vertex -7.02587 7.80302 11.2
      vertex -1.30661 12.4315 11.2
    endloop
  endfacet
  facet normal 0 0 1
    outer loop
      vertex -3.86271 11.8882 11.2
      vertex -8.49468 6.17174 11.2
      vertex -7.02587 7.80302 11.2
    endloop
  endfacet
  facet normal 0 0 1
    outer loop
      vertex -7.02587 7.80302 11.2
      vertex -5.25 9.09327 11.2
      vertex -1.30661 12.4315 11.2
    endloop
  endfacet
  facet normal 0 0 1
    outer loop
      vertex -1.30661 12.4315 11.2
      vertex -3.24468 9.98609 11.2
      vertex 1.30661 12.4315 11.2
    endloop
  endfacet
  facet normal 0 0 1
    outer loop
      vertex -5.25 9.09327 11.2
      vertex -3.24468 9.98609 11.2
      vertex -1.30661 12.4315 11.2
    endloop
  endfacet
  facet normal 0 0 1
    outer loop
      vertex 1.30661 12.4315 11.2
      vertex -1.09755 10.4425 11.2
      vertex 3.86271 11.8882 11.2
    endloop
  endfacet
  facet normal 0 0 1
    outer loop
      vertex -1.09755 10.4425 11.2
      vertex 1.09755 10.4425 11.2
      vertex 3.86271 11.8882 11.2
    endloop
  endfacet
  facet normal 0 0 1
    outer loop
      vertex 3.86271 11.8882 11.2
      vertex 3.24468 9.98609 11.2
      vertex 6.25 10.8253 11.2
    endloop
  endfacet
  facet normal 0 0 1
    outer loop
      vertex 10.2706 2.18307 11.2
      vertex 10.5 0 11.2
      vertex 12.5 0 11.2
    endloop
  endfacet
  facet normal 0 0 1
    outer loop
      vertex 6.25 10.8253 11.2
      vertex 5.25 9.09327 11.2
      vertex 8.36413 9.28931 11.2
    endloop
  endfacet
  facet normal 0 0 1
    outer loop
      vertex -9.59223 4.27074 11.2
      vertex -8.49468 6.17174 11.2
      vertex -12.2268 2.5989 11.2
    endloop
  endfacet
  facet normal 0 0 1
    outer loop
      vertex 8.36413 9.28931 11.2
      vertex 7.02587 7.80302 11.2
      vertex 10.1127 7.34732 11.2
    endloop
  endfacet
  facet normal 0 0 1
    outer loop
      vertex 10.1127 7.34732 11.2
      vertex 8.49468 6.17174 11.2
      vertex 11.4193 5.08421 11.2
    endloop
  endfacet
  facet normal 0 0 1
    outer loop
      vertex 11.4193 5.08421 11.2
      vertex 9.59223 4.27074 11.2
      vertex 12.2268 2.5989 11.2
    endloop
  endfacet
  facet normal 0 0 1
    outer loop
      vertex 12.2268 2.5989 11.2
      vertex 10.2706 2.18307 11.2
      vertex 12.5 0 11.2
    endloop
  endfacet
  facet normal 0 0 1
    outer loop
      vertex 12.5 0 11.2
      vertex 10.5 0 11.2
      vertex 12.2268 -2.5989 11.2
    endloop
  endfacet
  facet normal 0 0 1
    outer loop
      vertex 12.2268 -2.5989 11.2
      vertex 10.2706 -2.18307 11.2
      vertex 11.4193 -5.08421 11.2
    endloop
  endfacet
  facet normal 0 0 1
    outer loop
      vertex 5.25 9.09327 11.2
      vertex 7.02587 7.80302 11.2
      vertex 8.36413 9.28931 11.2
    endloop
  endfacet
  facet normal 0 0 1
    outer loop
      vertex 10.2706 -2.18307 11.2
      vertex 9.59223 -4.27074 11.2
      vertex 11.4193 -5.08421 11.2
    endloop
  endfacet
  facet normal 0 0 1
    outer loop
      vertex 11.4193 -5.08421 11.2
      vertex 8.49468 -6.17174 11.2
      vertex 10.1127 -7.34732 11.2
    endloop
  endfacet
  facet normal 0 0 1
    outer loop
      vertex 10.1127 -7.34732 11.2
      vertex 7.02587 -7.80302 11.2
      vertex 8.36413 -9.28931 11.2
    endloop
  endfacet
  facet normal 0 0 1
    outer loop
      vertex 8.36413 -9.28931 11.2
      vertex 5.25 -9.09327 11.2
      vertex 6.25 -10.8253 11.2
    endloop
  endfacet
  facet normal 0 0 1
    outer loop
      vertex 6.25 -10.8253 11.2
      vertex 3.24468 -9.98609 11.2
      vertex 3.86271 -11.8882 11.2
    endloop
  endfacet
  facet normal 0 0 1
    outer loop
      vertex 3.86271 -11.8882 11.2
      vertex 1.09755 -10.4425 11.2
      vertex 1.30661 -12.4315 11.2
    endloop
  endfacet
  facet normal 0 0 1
    outer loop
      vertex 10.5 0 11.2
      vertex 10.2706 -2.18307 11.2
      vertex 12.2268 -2.5989 11.2
    endloop
  endfacet
  facet normal 0 0 1
    outer loop
      vertex 1.30661 -12.4315 11.2
      vertex -1.09755 -10.4425 11.2
      vertex -1.30661 -12.4315 11.2
    endloop
  endfacet
  facet normal 0 0 1
    outer loop
      vertex -1.30661 -12.4315 11.2
      vertex -3.24468 -9.98609 11.2
      vertex -3.86271 -11.8882 11.2
    endloop
  endfacet
  facet normal 0 0 1
    outer loop
      vertex -3.24468 -9.98609 11.2
      vertex -5.25 -9.09327 11.2
      vertex -3.86271 -11.8882 11.2
    endloop
  endfacet
  facet normal 0 0 1
    outer loop
      vertex -3.86271 -11.8882 11.2
      vertex -7.02587 -7.80302 11.2
      vertex -6.25 -10.8253 11.2
    endloop
  endfacet
  facet normal 0 0 1
    outer loop
      vertex -6.25 -10.8253 11.2
      vertex -8.49468 -6.17174 11.2
      vertex -8.36413 -9.28931 11.2
    endloop
  endfacet
  facet normal 0 0 1
    outer loop
      vertex -8.49468 -6.17174 11.2
      vertex -9.59223 -4.27074 11.2
      vertex -8.36413 -9.28931 11.2
    endloop
  endfacet
  facet normal 0 0 1
    outer loop
      vertex -10.2706 -2.18307 11.2
      vertex -10.5 0 11.2
      vertex -12.2268 2.5989 11.2
    endloop
  endfacet
  facet normal 0 0 1
    outer loop
      vertex 7.02587 -7.80302 11.2
      vertex 5.25 -9.09327 11.2
      vertex 8.36413 -9.28931 11.2
    endloop
  endfacet
  facet normal 0 0 1
    outer loop
      vertex 5.25 -9.09327 11.2
      vertex 3.24468 -9.98609 11.2
      vertex 6.25 -10.8253 11.2
    endloop
  endfacet
  facet normal 0 0 1
    outer loop
      vertex 3.24468 -9.98609 11.2
      vertex 1.09755 -10.4425 11.2
      vertex 3.86271 -11.8882 11.2
    endloop
  endfacet
  facet normal 0 0 1
    outer loop
      vertex 1.09755 -10.4425 11.2
      vertex -1.09755 -10.4425 11.2
      vertex 1.30661 -12.4315 11.2
    endloop
  endfacet
  facet normal 0 0 1
    outer loop
      vertex -7.02587 -7.80302 11.2
      vertex -8.49468 -6.17174 11.2
      vertex -6.25 -10.8253 11.2
    endloop
  endfacet
  facet normal 0 0 1
    outer loop
      vertex -5.25 -9.09327 11.2
      vertex -7.02587 -7.80302 11.2
      vertex -3.86271 -11.8882 11.2
    endloop
  endfacet
  facet normal 0 0 1
    outer loop
      vertex -10.5 0 11.2
      vertex -10.2706 2.18307 11.2
      vertex -12.2268 2.5989 11.2
    endloop
  endfacet
  facet normal 0.993295 0.104399 -0.0496648
    outer loop
      vertex -10.5 0 11.2
      vertex -10.2706 -2.18307 11.2
      vertex -10.7596 -2.28703 1.2
    endloop
  endfacet
  facet normal 0.949883 0.308636 -0.0496648
    outer loop
      vertex -10.2706 -2.18307 11.2
      vertex -10.049 -4.4741 1.2
      vertex -10.7596 -2.28703 1.2
    endloop
  endfacet
  facet normal 0.949883 0.308636 -0.0496647
    outer loop
      vertex -9.59223 -4.27074 11.2
      vertex -10.049 -4.4741 1.2
      vertex -10.2706 -2.18307 11.2
    endloop
  endfacet
  facet normal 0.864957 0.499383 -0.0496647
    outer loop
      vertex -9.59223 -4.27074 11.2
      vertex -8.89919 -6.46564 1.2
      vertex -10.049 -4.4741 1.2
    endloop
  endfacet
  facet normal 0.864957 0.499383 -0.0496648
    outer loop
      vertex -8.49468 -6.17174 11.2
      vertex -8.89919 -6.46564 1.2
      vertex -9.59223 -4.27074 11.2
    endloop
  endfacet
  facet normal 0.742228 0.668305 -0.0496648
    outer loop
      vertex -8.49468 -6.17174 11.2
      vertex -7.36044 -8.17459 1.2
      vertex -8.89919 -6.46564 1.2
    endloop
  endfacet
  facet normal 0.742228 0.668305 -0.0496648
    outer loop
      vertex -7.02587 -7.80302 11.2
      vertex -7.36044 -8.17459 1.2
      vertex -8.49468 -6.17174 11.2
    endloop
  endfacet
  facet normal 0.58706 0.808019 -0.0496647
    outer loop
      vertex -7.02587 -7.80302 11.2
      vertex -5.5 -9.52628 1.2
      vertex -7.36044 -8.17459 1.2
    endloop
  endfacet
  facet normal 0.58706 0.808019 -0.0496647
    outer loop
      vertex -5.25 -9.09327 11.2
      vertex -5.5 -9.52628 1.2
      vertex -7.02587 -7.80302 11.2
    endloop
  endfacet
  facet normal 0.406235 0.912418 -0.0496647
    outer loop
      vertex -5.25 -9.09327 11.2
      vertex -3.39919 -10.4616 1.2
      vertex -5.5 -9.52628 1.2
    endloop
  endfacet
  facet normal 0.406234 0.912418 -0.0496648
    outer loop
      vertex -3.24468 -9.98609 11.2
      vertex -3.39919 -10.4616 1.2
      vertex -5.25 -9.09327 11.2
    endloop
  endfacet
  facet normal 0.207655 0.976941 -0.0496648
    outer loop
      vertex -3.24468 -9.98609 11.2
      vertex -1.14981 -10.9397 1.2
      vertex -3.39919 -10.4616 1.2
    endloop
  endfacet
  facet normal 0.207655 0.97694 -0.0496647
    outer loop
      vertex -1.09755 -10.4425 11.2
      vertex -1.14981 -10.9397 1.2
      vertex -3.24468 -9.98609 11.2
    endloop
  endfacet
  facet normal 0 0.998766 -0.0496647
    outer loop
      vertex 1.09755 -10.4425 11.2
      vertex 1.14981 -10.9397 1.2
      vertex -1.09755 -10.4425 11.2
    endloop
  endfacet
  facet normal 0 0.998766 -0.0496647
    outer loop
      vertex -1.09755 -10.4425 11.2
      vertex 1.14981 -10.9397 1.2
      vertex -1.14981 -10.9397 1.2
    endloop
  endfacet
  facet normal -0.207655 0.976941 -0.0496647
    outer loop
      vertex 3.39919 -10.4616 1.2
      vertex 1.14981 -10.9397 1.2
      vertex 1.09755 -10.4425 11.2
    endloop
  endfacet
  facet normal -0.207655 0.97694 -0.0496648
    outer loop
      vertex 3.24468 -9.98609 11.2
      vertex 3.39919 -10.4616 1.2
      vertex 1.09755 -10.4425 11.2
    endloop
  endfacet
  facet normal -0.406235 0.912418 -0.0496648
    outer loop
      vertex 5.5 -9.52628 1.2
      vertex 3.39919 -10.4616 1.2
      vertex 3.24468 -9.98609 11.2
    endloop
  endfacet
  facet normal -0.406234 0.912418 -0.0496647
    outer loop
      vertex 5.25 -9.09327 11.2
      vertex 5.5 -9.52628 1.2
      vertex 3.24468 -9.98609 11.2
    endloop
  endfacet
  facet normal -0.58706 0.808019 -0.0496647
    outer loop
      vertex 7.36044 -8.17459 1.2
      vertex 5.5 -9.52628 1.2
      vertex 5.25 -9.09327 11.2
    endloop
  endfacet
  facet normal -0.58706 0.808019 -0.0496647
    outer loop
      vertex 7.02587 -7.80302 11.2
      vertex 7.36044 -8.17459 1.2
      vertex 5.25 -9.09327 11.2
    endloop
  endfacet
  facet normal -0.742228 0.668305 -0.0496648
    outer loop
      vertex 8.89919 -6.46564 1.2
      vertex 7.36044 -8.17459 1.2
      vertex 7.02587 -7.80302 11.2
    endloop
  endfacet
  facet normal -0.742228 0.668305 -0.0496648
    outer loop
      vertex 8.49468 -6.17174 11.2
      vertex 8.89919 -6.46564 1.2
      vertex 7.02587 -7.80302 11.2
    endloop
  endfacet
  facet normal -0.864957 0.499383 -0.0496648
    outer loop
      vertex 10.049 -4.4741 1.2
      vertex 8.89919 -6.46564 1.2
      vertex 8.49468 -6.17174 11.2
    endloop
  endfacet
  facet normal -0.864957 0.499383 -0.0496647
    outer loop
      vertex 9.59223 -4.27074 11.2
      vertex 10.049 -4.4741 1.2
      vertex 8.49468 -6.17174 11.2
    endloop
  endfacet
  facet normal -0.949883 0.308636 -0.0496647
    outer loop
      vertex 10.7596 -2.28703 1.2
      vertex 10.049 -4.4741 1.2
      vertex 9.59223 -4.27074 11.2
    endloop
  endfacet
  facet normal -0.949883 0.308636 -0.0496648
    outer loop
      vertex 10.2706 -2.18307 11.2
      vertex 10.7596 -2.28703 1.2
      vertex 9.59223 -4.27074 11.2
    endloop
  endfacet
  facet normal -0.993295 0.104399 -0.0496648
    outer loop
      vertex 11 0 1.2
      vertex 10.7596 -2.28703 1.2
      vertex 10.2706 -2.18307 11.2
    endloop
  endfacet
  facet normal -0.993295 0.104399 -0.0496647
    outer loop
      vertex 10.5 0 11.2
      vertex 11 0 1.2
      vertex 10.2706 -2.18307 11.2
    endloop
  endfacet
  facet normal -0.993295 -0.104399 -0.0496647
    outer loop
      vertex 10.7596 2.28703 1.2
      vertex 11 0 1.2
      vertex 10.5 0 11.2
    endloop
  endfacet
  facet normal -0.993295 -0.104399 -0.0496648
    outer loop
      vertex 10.7596 2.28703 1.2
      vertex 10.5 0 11.2
      vertex 10.2706 2.18307 11.2
    endloop
  endfacet
  facet normal -0.949883 -0.308636 -0.0496648
    outer loop
      vertex 10.7596 2.28703 1.2
      vertex 10.2706 2.18307 11.2
      vertex 10.049 4.4741 1.2
    endloop
  endfacet
  facet normal -0.949883 -0.308636 -0.0496647
    outer loop
      vertex 10.049 4.4741 1.2
      vertex 10.2706 2.18307 11.2
      vertex 9.59223 4.27074 11.2
    endloop
  endfacet
  facet normal -0.864957 -0.499383 -0.0496647
    outer loop
      vertex 10.049 4.4741 1.2
      vertex 9.59223 4.27074 11.2
      vertex 8.89919 6.46564 1.2
    endloop
  endfacet
  facet normal -0.864957 -0.499383 -0.0496648
    outer loop
      vertex 8.89919 6.46564 1.2
      vertex 9.59223 4.27074 11.2
      vertex 8.49468 6.17174 11.2
    endloop
  endfacet
  facet normal -0.742228 -0.668305 -0.0496648
    outer loop
      vertex 8.89919 6.46564 1.2
      vertex 8.49468 6.17174 11.2
      vertex 7.36044 8.17459 1.2
    endloop
  endfacet
  facet normal -0.742228 -0.668305 -0.0496648
    outer loop
      vertex 7.36044 8.17459 1.2
      vertex 8.49468 6.17174 11.2
      vertex 7.02587 7.80302 11.2
    endloop
  endfacet
  facet normal -0.58706 -0.808019 -0.0496647
    outer loop
      vertex 7.36044 8.17459 1.2
      vertex 7.02587 7.80302 11.2
      vertex 5.5 9.52628 1.2
    endloop
  endfacet
  facet normal -0.58706 -0.808019 -0.0496647
    outer loop
      vertex 5.5 9.52628 1.2
      vertex 7.02587 7.80302 11.2
      vertex 5.25 9.09327 11.2
    endloop
  endfacet
  facet normal -0.406235 -0.912418 -0.0496647
    outer loop
      vertex 5.5 9.52628 1.2
      vertex 5.25 9.09327 11.2
      vertex 3.39919 10.4616 1.2
    endloop
  endfacet
  facet normal -0.406234 -0.912418 -0.0496648
    outer loop
      vertex 3.39919 10.4616 1.2
      vertex 5.25 9.09327 11.2
      vertex 3.24468 9.98609 11.2
    endloop
  endfacet
  facet normal -0.207655 -0.976941 -0.0496648
    outer loop
      vertex 3.39919 10.4616 1.2
      vertex 3.24468 9.98609 11.2
      vertex 1.14981 10.9397 1.2
    endloop
  endfacet
  facet normal -0.207655 -0.97694 -0.0496647
    outer loop
      vertex 1.14981 10.9397 1.2
      vertex 3.24468 9.98609 11.2
      vertex 1.09755 10.4425 11.2
    endloop
  endfacet
  facet normal 0 -0.998766 -0.0496647
    outer loop
      vertex 1.14981 10.9397 1.2
      vertex 1.09755 10.4425 11.2
      vertex -1.09755 10.4425 11.2
    endloop
  endfacet
  facet normal 0 -0.998766 -0.0496647
    outer loop
      vertex -1.14981 10.9397 1.2
      vertex 1.14981 10.9397 1.2
      vertex -1.09755 10.4425 11.2
    endloop
  endfacet
  facet normal 0.207655 -0.976941 -0.0496647
    outer loop
      vertex -1.14981 10.9397 1.2
      vertex -1.09755 10.4425 11.2
      vertex -3.39919 10.4616 1.2
    endloop
  endfacet
  facet normal 0.207655 -0.97694 -0.0496648
    outer loop
      vertex -1.09755 10.4425 11.2
      vertex -3.24468 9.98609 11.2
      vertex -3.39919 10.4616 1.2
    endloop
  endfacet
  facet normal 0.406235 -0.912418 -0.0496648
    outer loop
      vertex -3.39919 10.4616 1.2
      vertex -3.24468 9.98609 11.2
      vertex -5.5 9.52628 1.2
    endloop
  endfacet
  facet normal 0.406234 -0.912418 -0.0496647
    outer loop
      vertex -3.24468 9.98609 11.2
      vertex -5.25 9.09327 11.2
      vertex -5.5 9.52628 1.2
    endloop
  endfacet
  facet normal 0.58706 -0.808019 -0.0496647
    outer loop
      vertex -5.5 9.52628 1.2
      vertex -5.25 9.09327 11.2
      vertex -7.36044 8.17459 1.2
    endloop
  endfacet
  facet normal 0.58706 -0.808019 -0.0496647
    outer loop
      vertex -5.25 9.09327 11.2
      vertex -7.02587 7.80302 11.2
      vertex -7.36044 8.17459 1.2
    endloop
  endfacet
  facet normal 0.742228 -0.668305 -0.0496648
    outer loop
      vertex -7.36044 8.17459 1.2
      vertex -7.02587 7.80302 11.2
      vertex -8.89919 6.46564 1.2
    endloop
  endfacet
  facet normal 0.742228 -0.668305 -0.0496648
    outer loop
      vertex -7.02587 7.80302 11.2
      vertex -8.49468 6.17174 11.2
      vertex -8.89919 6.46564 1.2
    endloop
  endfacet
  facet normal 0.864957 -0.499383 -0.0496648
    outer loop
      vertex -8.89919 6.46564 1.2
      vertex -8.49468 6.17174 11.2
      vertex -10.049 4.4741 1.2
    endloop
  endfacet
  facet normal 0.864957 -0.499383 -0.0496647
    outer loop
      vertex -8.49468 6.17174 11.2
      vertex -9.59223 4.27074 11.2
      vertex -10.049 4.4741 1.2
    endloop
  endfacet
  facet normal 0.949883 -0.308636 -0.0496647
    outer loop
      vertex -10.049 4.4741 1.2
      vertex -9.59223 4.27074 11.2
      vertex -10.7596 2.28703 1.2
    endloop
  endfacet
  facet normal 0.949883 -0.308636 -0.0496648
    outer loop
      vertex -9.59223 4.27074 11.2
      vertex -10.2706 2.18307 11.2
      vertex -10.7596 2.28703 1.2
    endloop
  endfacet
  facet normal 0.993295 -0.104399 -0.0496648
    outer loop
      vertex -10.7596 2.28703 1.2
      vertex -10.2706 2.18307 11.2
      vertex -11 0 1.2
    endloop
  endfacet
  facet normal 0.993295 -0.104399 -0.0496647
    outer loop
      vertex -10.2706 2.18307 11.2
      vertex -10.5 0 11.2
      vertex -11 0 1.2
    endloop
  endfacet
  facet normal 0.993295 0.104399 -0.0496647
    outer loop
      vertex -10.5 0 11.2
      vertex -10.7596 -2.28703 1.2
      vertex -11 0 1.2
    endloop
  endfacet
  facet normal 0 0 1
    outer loop
      vertex -10.7596 -2.28703 1.2
      vertex -10.049 -4.4741 1.2
      vertex -8.89919 -6.46564 1.2
    endloop
  endfacet
  facet normal 0 0 1
    outer loop
      vertex -5.5 -9.52628 1.2
      vertex -10.7596 -2.28703 1.2
      vertex -7.36044 -8.17459 1.2
    endloop
  endfacet
  facet normal 0 0 1
    outer loop
      vertex -7.36044 -8.17459 1.2
      vertex -10.7596 -2.28703 1.2
      vertex -8.89919 -6.46564 1.2
    endloop
  endfacet
  facet normal 0 0 1
    outer loop
      vertex -3.39919 -10.4616 1.2
      vertex -10.7596 -2.28703 1.2
      vertex -5.5 -9.52628 1.2
    endloop
  endfacet
  facet normal 0 0 1
    outer loop
      vertex -1.14981 -10.9397 1.2
      vertex -10.7596 -2.28703 1.2
      vertex -3.39919 -10.4616 1.2
    endloop
  endfacet
  facet normal 0 0 1
    outer loop
      vertex 1.14981 -10.9397 1.2
      vertex -10.7596 -2.28703 1.2
      vertex -1.14981 -10.9397 1.2
    endloop
  endfacet
  facet normal 0 0 1
    outer loop
      vertex 3.39919 -10.4616 1.2
      vertex -10.7596 -2.28703 1.2
      vertex 1.14981 -10.9397 1.2
    endloop
  endfacet
  facet normal 0 0 1
    outer loop
      vertex 5.5 -9.52628 1.2
      vertex -10.7596 -2.28703 1.2
      vertex 3.39919 -10.4616 1.2
    endloop
  endfacet
  facet normal 0 0 1
    outer loop
      vertex 7.36044 -8.17459 1.2
      vertex -10.7596 -2.28703 1.2
      vertex 5.5 -9.52628 1.2
    endloop
  endfacet
  facet normal 0 0 1
    outer loop
      vertex 8.89919 -6.46564 1.2
      vertex -10.7596 -2.28703 1.2
      vertex 7.36044 -8.17459 1.2
    endloop
  endfacet
  facet normal 0 0 1
    outer loop
      vertex 10.049 -4.4741 1.2
      vertex -10.7596 -2.28703 1.2
      vertex 8.89919 -6.46564 1.2
    endloop
  endfacet
  facet normal 0 0 1
    outer loop
      vertex 10.7596 -2.28703 1.2
      vertex -10.7596 -2.28703 1.2
      vertex 10.049 -4.4741 1.2
    endloop
  endfacet
  facet normal 0 0 1
    outer loop
      vertex 11 0 1.2
      vertex -10.7596 -2.28703 1.2
      vertex 10.7596 -2.28703 1.2
    endloop
  endfacet
  facet normal 0 0 1
    outer loop
      vertex 10.7596 2.28703 1.2
      vertex -10.7596 -2.28703 1.2
      vertex 11 0 1.2
    endloop
  endfacet
  facet normal 0 0 1
    outer loop
      vertex 10.049 4.4741 1.2
      vertex -10.7596 -2.28703 1.2
      vertex 10.7596 2.28703 1.2
    endloop
  endfacet
  facet normal 0 0 1
    outer loop
      vertex 8.89919 6.46564 1.2
      vertex -10.7596 -2.28703 1.2
      vertex 10.049 4.4741 1.2
    endloop
  endfacet
  facet normal 0 0 1
    outer loop
      vertex 7.36044 8.17459 1.2
      vertex -10.7596 -2.28703 1.2
      vertex 8.89919 6.46564 1.2
    endloop
  endfacet
  facet normal 0 0 1
    outer loop
      vertex 5.5 9.52628 1.2
      vertex -10.7596 -2.28703 1.2
      vertex 7.36044 8.17459 1.2
    endloop
  endfacet
  facet normal 0 0 1
    outer loop
      vertex 3.39919 10.4616 1.2
      vertex -10.7596 -2.28703 1.2
      vertex 5.5 9.52628 1.2
    endloop
  endfacet
  facet normal 0 0 1
    outer loop
      vertex 1.14981 10.9397 1.2
      vertex -10.7596 -2.28703 1.2
      vertex 3.39919 10.4616 1.2
    endloop
  endfacet
  facet normal 0 0 1
    outer loop
      vertex -1.14981 10.9397 1.2
      vertex -10.7596 -2.28703 1.2
      vertex 1.14981 10.9397 1.2
    endloop
  endfacet
  facet normal 0 0 1
    outer loop
      vertex -3.39919 10.4616 1.2
      vertex -10.7596 -2.28703 1.2
      vertex -1.14981 10.9397 1.2
    endloop
  endfacet
  facet normal 0 0 1
    outer loop
      vertex -5.5 9.52628 1.2
      vertex -10.7596 -2.28703 1.2
      vertex -3.39919 10.4616 1.2
    endloop
  endfacet
  facet normal 0 0 1
    outer loop
      vertex -7.36044 8.17459 1.2
      vertex -10.7596 -2.28703 1.2
      vertex -5.5 9.52628 1.2
    endloop
  endfacet
  facet normal 0 0 1
    outer loop
      vertex -8.89919 6.46564 1.2
      vertex -10.7596 -2.28703 1.2
      vertex -7.36044 8.17459 1.2
    endloop
  endfacet
  facet normal 0 0 1
    outer loop
      vertex -10.049 4.4741 1.2
      vertex -10.7596 -2.28703 1.2
      vertex -8.89919 6.46564 1.2
    endloop
  endfacet
  facet normal 0 0 1
    outer loop
      vertex -10.7596 2.28703 1.2
      vertex -10.7596 -2.28703 1.2
      vertex -10.049 4.4741 1.2
    endloop
  endfacet
  facet normal 0 0 1
    outer loop
      vertex -11 0 1.2
      vertex -10.7596 -2.28703 1.2
      vertex -10.7596 2.28703 1.2
    endloop
  endfacet
endsolid OpenSCAD_Model
